<svg id="visual" viewBox="0 0 950 550" width="950" height="550" xmlns="http://www.w3.org/2000/svg" xmlns:xlink="http://www.w3.org/1999/xlink" version="1.1"><rect width="950" height="550" fill="#125C6E"></rect><g><g transform="translate(916 149)"><path d="M0 -136L117.8 -68L117.8 68L0 136L-117.8 68L-117.8 -68Z" fill="none" stroke="#133B45" stroke-width="2"></path></g><g transform="translate(393 311)"><path d="M0 -64L55.4 -32L55.4 32L0 64L-55.4 32L-55.4 -32Z" fill="none" stroke="#133B45" stroke-width="2"></path></g><g transform="translate(390 37)"><path d="M0 -86L74.5 -43L74.5 43L0 86L-74.5 43L-74.5 -43Z" stroke="#133B45" fill="none" stroke-width="2"></path></g><g transform="translate(98 502)"><path d="M0 -91L78.8 -45.5L78.8 45.5L0 91L-78.8 45.5L-78.8 -45.5Z" stroke="#133B45" fill="none" stroke-width="2"></path></g></g></svg>