<svg id="visual" viewBox="0 0 950 550" width="950" height="550" xmlns="http://www.w3.org/2000/svg" xmlns:xlink="http://www.w3.org/1999/xlink" version="1.1"><rect width="950" height="550" fill="#125C6E"></rect><g><g transform="translate(918 110)"><path d="M0 -136L117.8 -68L117.8 68L0 136L-117.8 68L-117.8 -68Z" fill="none" stroke="#133B45" stroke-width="2"></path></g><g transform="translate(524 466)"><path d="M0 -121L104.8 -60.5L104.8 60.5L0 121L-104.8 60.5L-104.8 -60.5Z" fill="none" stroke="#133B45" stroke-width="2"></path></g><g transform="translate(5 195)"><path d="M0 -57L49.4 -28.5L49.4 28.5L0 57L-49.4 28.5L-49.4 -28.5Z" stroke="#133B45" fill="none" stroke-width="2"></path></g><g transform="translate(196 392)"><path d="M0 -78L67.5 -39L67.5 39L0 78L-67.5 39L-67.5 -39Z" stroke="#133B45" fill="none" stroke-width="2"></path></g><g transform="translate(593 154)"><path d="M0 -70L60.6 -35L60.6 35L0 70L-60.6 35L-60.6 -35Z" stroke="#133B45" fill="none" stroke-width="2"></path></g></g></svg>