<svg id="visual" viewBox="0 0 1440 1024" width="1440" height="1024" xmlns="http://www.w3.org/2000/svg" xmlns:xlink="http://www.w3.org/1999/xlink" version="1.1"><rect width="1440" height="1024" fill="#e0e0e0"></rect><g><g transform="translate(922 281)"><path d="M0 -180.3L156.2 -90.2L156.2 90.2L0 180.3L-156.2 90.2L-156.2 -90.2Z" fill="none" stroke="#0066FF" stroke-width="3"></path></g><g transform="translate(530 713)"><path d="M0 -81L70.1 -40.5L70.1 40.5L0 81L-70.1 40.5L-70.1 -40.5Z" stroke="#0066FF" fill="none" stroke-width="3"></path></g><g transform="translate(1164 696)"><path d="M0 -153L132.5 -76.5L132.5 76.5L0 153L-132.5 76.5L-132.5 -76.5Z" stroke="#0066FF" fill="none" stroke-width="3"></path></g><g transform="translate(551 206)"><path d="M0 -67L58 -33.5L58 33.5L0 67L-58 33.5L-58 -33.5Z" stroke="#0066FF" fill="none" stroke-width="3"></path></g><g transform="translate(200 507)"><path d="M0 -132L114.3 -66L114.3 66L0 132L-114.3 66L-114.3 -66Z" stroke="#0066FF" fill="none" stroke-width="3"></path></g></g></svg>