<svg id="visual" viewBox="0 0 900 600" width="900" height="600" xmlns="http://www.w3.org/2000/svg" xmlns:xlink="http://www.w3.org/1999/xlink" version="1.1"><g stroke-width="1" stroke-linejoin="bevel"><path d="M445 203L229 395L454 398Z" fill="#e6e6e6" stroke="#e6e6e6"></path><path d="M445 203L221 202L229 395Z" fill="#dadada" stroke="#dadada"></path><path d="M227 600L454 600L454 398Z" fill="#e1e1e1" stroke="#e1e1e1"></path><path d="M0 399L227 600L229 395Z" fill="#ebebeb" stroke="#ebebeb"></path><path d="M229 395L227 600L454 398Z" fill="#e4e4e4" stroke="#e4e4e4"></path><path d="M673 201L453 0L445 203Z" fill="#d8d8d8" stroke="#d8d8d8"></path><path d="M445 203L226 0L221 202Z" fill="#e6e6e6" stroke="#e6e6e6"></path><path d="M453 0L226 0L445 203Z" fill="#dadada" stroke="#dadada"></path><path d="M454 600L675 401L454 398Z" fill="#d8d8d8" stroke="#d8d8d8"></path><path d="M454 398L673 201L445 203Z" fill="#dddddd" stroke="#dddddd"></path><path d="M675 401L673 201L454 398Z" fill="#ebebeb" stroke="#ebebeb"></path><path d="M221 202L0 399L229 395Z" fill="#e1e1e1" stroke="#e1e1e1"></path><path d="M0 204L0 399L221 202Z" fill="#e1e1e1" stroke="#e1e1e1"></path><path d="M0 0L0 204L221 202Z" fill="#e6e6e6" stroke="#e6e6e6"></path><path d="M454 600L678 600L675 401Z" fill="#e1e1e1" stroke="#e1e1e1"></path><path d="M900 202L679 0L673 201Z" fill="#e4e4e4" stroke="#e4e4e4"></path><path d="M0 399L0 600L227 600Z" fill="#d3d3d3" stroke="#d3d3d3"></path><path d="M673 201L679 0L453 0Z" fill="#e4e4e4" stroke="#e4e4e4"></path><path d="M900 395L673 201L675 401Z" fill="#e4e4e4" stroke="#e4e4e4"></path><path d="M226 0L0 0L221 202Z" fill="#dadada" stroke="#dadada"></path><path d="M900 600L900 395L675 401Z" fill="#d3d3d3" stroke="#d3d3d3"></path><path d="M900 395L900 202L673 201Z" fill="#e4e4e4" stroke="#e4e4e4"></path><path d="M678 600L900 600L675 401Z" fill="#dadada" stroke="#dadada"></path><path d="M900 202L900 0L679 0Z" fill="#e1e1e1" stroke="#e1e1e1"></path></g></svg>