<svg id="visual" viewBox="0 0 900 600" width="900" height="600" xmlns="http://www.w3.org/2000/svg" xmlns:xlink="http://www.w3.org/1999/xlink" version="1.1"><g><g transform="translate(624 300)"><path d="M53.3 -62.6C63.9 -54.7 63.6 -32.9 60.7 -15.7C57.7 1.5 52.2 14.2 46.5 29.5C40.8 44.8 35.1 62.7 23.7 68.1C12.3 73.6 -4.7 66.6 -20.8 59.6C-36.9 52.7 -52.2 45.8 -60.3 33.8C-68.4 21.8 -69.3 4.7 -64.9 -9.9C-60.5 -24.5 -50.6 -36.5 -38.9 -44.2C-27.2 -51.8 -13.6 -55 3.9 -59.7C21.4 -64.3 42.8 -70.4 53.3 -62.6Z" stroke="#084067" fill="none" stroke-width="2"></path></g><g transform="translate(724 108)"><path d="M35.6 -39.7C46.5 -33.4 55.7 -22.4 56.8 -10.8C58 0.9 51.1 13.2 43.3 23.4C35.5 33.6 26.8 41.8 14.7 50.7C2.6 59.6 -13.1 69.2 -26.5 66.9C-39.8 64.5 -50.9 50.2 -56.7 35.2C-62.4 20.2 -62.7 4.5 -58.1 -8.2C-53.4 -20.9 -43.7 -30.7 -33.2 -37C-22.7 -43.4 -11.3 -46.2 0.5 -46.9C12.4 -47.5 24.8 -45.9 35.6 -39.7Z" stroke="#084067" fill="none" stroke-width="2"></path></g><g transform="translate(134 161)"><path d="M39.6 -44.2C49.2 -39.1 53.4 -24.6 54.4 -10.8C55.4 3 53.2 16.2 45.8 24C38.4 31.8 25.8 34.2 14.6 36.9C3.3 39.7 -6.8 42.9 -15 40.3C-23.2 37.7 -29.7 29.3 -34.3 20.3C-38.9 11.3 -41.7 1.7 -40.9 -8C-40.1 -17.8 -35.8 -27.7 -28.4 -33.2C-21 -38.7 -10.5 -39.8 2.2 -42.4C15 -45.1 30 -49.3 39.6 -44.2Z" stroke="#084067" fill="none" stroke-width="2"></path></g><g transform="translate(260 355)"><path d="M41.7 -52.8C50.6 -42.3 52 -25.8 52 -11.3C52.1 3.3 50.9 16 44.7 25C38.6 34.1 27.5 39.5 14.8 46.9C2.1 54.3 -12.2 63.6 -27 63C-41.7 62.5 -56.9 52 -63.9 37.9C-70.9 23.7 -69.7 5.8 -66.9 -12.1C-64.1 -30.1 -59.8 -48.1 -48.4 -58.1C-37 -68.2 -18.5 -70.3 -1 -69.1C16.4 -67.9 32.9 -63.3 41.7 -52.8Z" stroke="#084067" fill="none" stroke-width="2"></path></g><g transform="translate(412 199)"><path d="M14.2 -15.8C18.4 -13.5 21.5 -8.9 22.9 -3.7C24.2 1.5 23.7 7.5 21 12.2C18.4 17 13.6 20.6 8.3 22.2C3.1 23.9 -2.7 23.5 -6.4 20.8C-10.2 18.1 -11.9 13 -13.6 8.6C-15.2 4.2 -16.7 0.5 -16.8 -3.6C-16.9 -7.7 -15.5 -12.3 -12.4 -14.8C-9.4 -17.3 -4.7 -17.9 0.2 -18.1C5.1 -18.3 10.1 -18.2 14.2 -15.8Z" stroke="#084067" fill="none" stroke-width="2"></path></g><g transform="translate(460 468)"><path d="M36.2 -42C50.4 -31.3 67.7 -23.1 69.7 -12.2C71.7 -1.3 58.4 12.3 48.5 26.5C38.5 40.7 32 55.4 20 63.4C8 71.4 -9.5 72.8 -20.8 65.1C-32.1 57.5 -37.1 41 -41.5 27C-46 13.1 -49.7 1.8 -51.1 -12.2C-52.4 -26.3 -51.5 -43.2 -42.6 -54.8C-33.6 -66.4 -16.8 -72.7 -2.9 -69.3C11 -65.8 22.1 -52.6 36.2 -42Z" stroke="#084067" fill="none" stroke-width="2"></path></g><g transform="translate(780 469)"><path d="M24.3 -30.2C30.2 -23.9 32.9 -15.1 33.7 -6.5C34.5 2 33.4 10.3 28.9 15.4C24.5 20.5 16.6 22.4 9.5 24.3C2.3 26.1 -4.3 28 -10.6 26.8C-17 25.5 -23.1 21.2 -27.3 15.1C-31.5 9.1 -33.9 1.4 -31.5 -4.5C-29.2 -10.3 -22.2 -14.2 -16.2 -20.5C-10.2 -26.7 -5.1 -35.2 2 -37.6C9.2 -40.1 18.3 -36.4 24.3 -30.2Z" stroke="#084067" fill="none" stroke-width="2"></path></g></g></svg>