<svg width="40" height="197" viewBox="0 0 40 197" fill="none" xmlns="http://www.w3.org/2000/svg">
<path id="scroll__text" d="M14.112 47.688C14.112 48.3787 14.0047 49.046 13.79 49.69C13.566 50.3247 13.2673 50.824 12.894 51.188C12.7913 51.3093 12.656 51.37 12.488 51.37C12.3853 51.37 12.2967 51.342 12.222 51.286C12.1473 51.2207 12.11 51.1507 12.11 51.076C12.11 50.9827 12.1567 50.8753 12.25 50.754C12.978 49.8767 13.342 48.8547 13.342 47.688C13.342 46.8387 13.174 46.1853 12.838 45.728C12.4927 45.2613 12.0073 45.028 11.382 45.028C11.018 45.028 10.724 45.14 10.5 45.364C10.276 45.588 10.1033 45.8727 9.982 46.218C9.85133 46.5633 9.72067 47.0253 9.59 47.604C9.422 48.3693 9.24933 48.99 9.072 49.466C8.89467 49.9327 8.62867 50.3293 8.274 50.656C7.91 50.9827 7.42467 51.146 6.818 51.146C6.26733 51.146 5.782 51.0013 5.362 50.712C4.93267 50.4133 4.60133 49.998 4.368 49.466C4.13467 48.934 4.018 48.3227 4.018 47.632C4.018 46.988 4.12533 46.3813 4.34 45.812C4.54533 45.2427 4.844 44.7713 5.236 44.398C5.35733 44.2767 5.49267 44.216 5.642 44.216C5.74467 44.216 5.83333 44.2487 5.908 44.314C5.98267 44.37 6.02 44.4353 6.02 44.51C6.02 44.6033 5.97333 44.7107 5.88 44.832C5.46933 45.336 5.18467 45.7933 5.026 46.204C4.86733 46.6053 4.788 47.0813 4.788 47.632C4.788 48.4627 4.96533 49.1113 5.32 49.578C5.67467 50.0447 6.16933 50.278 6.804 50.278C7.18667 50.278 7.49933 50.1753 7.742 49.97C7.97533 49.7647 8.162 49.4987 8.302 49.172C8.442 48.836 8.57733 48.4067 8.708 47.884L8.792 47.52C8.97867 46.764 9.15133 46.1667 9.31 45.728C9.46867 45.2893 9.716 44.9207 10.052 44.622C10.3787 44.314 10.822 44.16 11.382 44.16C11.914 44.16 12.39 44.3093 12.81 44.608C13.2207 44.8973 13.5427 45.3127 13.776 45.854C14 46.386 14.112 46.9973 14.112 47.688ZM14.098 36.0201C14.098 36.6454 13.9533 37.1961 13.664 37.6721C13.3747 38.1481 12.964 38.5168 12.432 38.7781C11.9 39.0394 11.2887 39.1701 10.598 39.1701C9.898 39.1701 9.282 39.0394 8.75 38.7781C8.20867 38.5074 7.78867 38.1341 7.49 37.6581C7.19133 37.1728 7.042 36.6174 7.042 35.9921C7.042 35.6374 7.08867 35.2921 7.182 34.9561C7.27533 34.6201 7.41533 34.3214 7.602 34.0601C7.72333 33.8921 7.83533 33.7754 7.938 33.7101C8.03133 33.6354 8.134 33.5981 8.246 33.5981C8.34867 33.5981 8.43267 33.6261 8.498 33.6821C8.56333 33.7381 8.596 33.8081 8.596 33.8921C8.596 33.9854 8.51667 34.1348 8.358 34.3401C8.18067 34.5828 8.04067 34.8254 7.938 35.0681C7.83533 35.3108 7.784 35.6048 7.784 35.9501C7.784 36.6781 8.036 37.2474 8.54 37.6581C9.03467 38.0688 9.72067 38.2741 10.598 38.2741C11.466 38.2741 12.1427 38.0734 12.628 37.6721C13.104 37.2614 13.342 36.6921 13.342 35.9641C13.342 35.6094 13.2907 35.3154 13.188 35.0821C13.0853 34.8394 12.9453 34.5781 12.768 34.2981C12.712 34.2141 12.6607 34.1348 12.614 34.0601C12.5673 33.9761 12.544 33.9108 12.544 33.8641C12.544 33.7708 12.5767 33.6961 12.642 33.6401C12.7073 33.5841 12.7867 33.5561 12.88 33.5561C12.992 33.5561 13.09 33.5888 13.174 33.6541C13.258 33.7194 13.3653 33.8454 13.496 34.0321C13.6827 34.2841 13.832 34.5921 13.944 34.9561C14.0467 35.3108 14.098 35.6654 14.098 36.0201ZM7.07 25.2876C7.06067 25.1102 7.084 24.9842 7.14 24.9096C7.196 24.8349 7.28933 24.7976 7.42 24.7976C7.65333 24.7976 7.784 24.9376 7.812 25.2176L7.854 25.6376C7.91933 26.3002 8.15733 26.7949 8.568 27.1216C8.97867 27.4389 9.45933 27.5976 10.01 27.5976L13.636 27.5976C13.776 27.5976 13.8833 27.6349 13.958 27.7096C14.0327 27.7842 14.07 27.8869 14.07 28.0176C14.07 28.1482 14.0327 28.2556 13.958 28.3396C13.8833 28.4142 13.776 28.4516 13.636 28.4516L7.504 28.4516C7.364 28.4516 7.25667 28.4142 7.182 28.3396C7.10733 28.2556 7.07 28.1482 7.07 28.0176C7.07 27.8962 7.10733 27.7982 7.182 27.7236C7.25667 27.6489 7.35933 27.6116 7.49 27.6116L8.4 27.6116C7.59733 27.2289 7.15867 26.5196 7.084 25.4836L7.07 25.2876ZM14.098 17.5021C14.098 18.1275 13.9533 18.6781 13.664 19.1541C13.3747 19.6208 12.964 19.9848 12.432 20.2461C11.9 20.5075 11.2793 20.6381 10.57 20.6381C9.86067 20.6381 9.24 20.5075 8.708 20.2461C8.176 19.9848 7.76533 19.6208 7.476 19.1541C7.18667 18.6781 7.042 18.1275 7.042 17.5021C7.042 16.8861 7.18666 16.3401 7.476 15.8641C7.76533 15.3881 8.176 15.0241 8.708 14.7721C9.24 14.5108 9.86066 14.3801 10.57 14.3801C11.2793 14.3801 11.9 14.5108 12.432 14.7721C12.964 15.0241 13.3747 15.3881 13.664 15.8641C13.9533 16.3401 14.098 16.8861 14.098 17.5021ZM13.342 17.5161C13.342 16.7975 13.104 16.2421 12.628 15.8501C12.152 15.4581 11.466 15.2621 10.57 15.2621C9.69266 15.2621 9.01133 15.4628 8.526 15.8641C8.03133 16.2561 7.784 16.8021 7.784 17.5021C7.784 18.2115 8.03133 18.7621 8.526 19.1541C9.01133 19.5461 9.69267 19.7421 10.57 19.7421C11.466 19.7421 12.152 19.5508 12.628 19.1681C13.104 18.7855 13.342 18.2348 13.342 17.5161ZM14.07 8.50123C14.07 8.6319 14.0327 8.73923 13.958 8.82323C13.8833 8.8979 13.776 8.93523 13.636 8.93523L4.494 8.93523C4.354 8.93523 4.24666 8.8979 4.172 8.82323C4.09733 8.73923 4.06 8.6319 4.06 8.50123C4.06 8.3799 4.09733 8.2819 4.172 8.20723C4.24666 8.12323 4.354 8.08123 4.494 8.08123L13.636 8.08123C13.776 8.08123 13.8833 8.12323 13.958 8.20723C14.0327 8.2819 14.07 8.3799 14.07 8.50123ZM14.07 1.75772C14.07 1.88838 14.0327 1.99572 13.958 2.07972C13.8833 2.15438 13.776 2.19172 13.636 2.19172L4.494 2.19172C4.354 2.19172 4.24666 2.15438 4.172 2.07972C4.09733 1.99572 4.06 1.88838 4.06 1.75772C4.06 1.63638 4.09733 1.53838 4.172 1.46372C4.24666 1.37972 4.354 1.33772 4.494 1.33772L13.636 1.33772C13.776 1.33772 13.8833 1.37972 13.958 1.46372C14.0327 1.53838 14.07 1.63638 14.07 1.75772Z" fill="black"/>
<circle cx="34.5" cy="25.5" r="5.5" fill="black"/>
<line x1="34.5" y1="25" x2="34.5" y2="197" stroke="black"/>
</svg>
