<svg id="visual" viewBox="0 0 800 1800" width="800" height="1800" xmlns="http://www.w3.org/2000/svg" xmlns:xlink="http://www.w3.org/1999/xlink" version="1.1"><g stroke-width="1" stroke-linejoin="bevel"><path d="M376.6 939.6L376.6 979.9L443.4 956.6Z" fill="#1f1f1f" stroke="#191919"></path><path d="M443.4 956.6L468.4 871.1L376.6 939.6Z" fill="#242424" stroke="#191919"></path><path d="M255.7 944.6L355.6 1030.3L376.6 979.9Z" fill="#1a1a1a" stroke="#191919"></path><path d="M376.6 979.9L486.4 1030.3L443.4 956.6Z" fill="#232323" stroke="#191919"></path><path d="M443.4 956.6L486.4 1030.3L479.3 931.6Z" fill="#1d1d1d" stroke="#191919"></path><path d="M355.6 1030.3L486.4 1030.3L376.6 979.9Z" fill="#1b1b1b" stroke="#191919"></path><path d="M479.3 931.6L468.4 871.1L443.4 956.6Z" fill="#1f1f1f" stroke="#191919"></path><path d="M486.4 1030.3L537.2 961.6L479.3 931.6Z" fill="#1d1d1d" stroke="#191919"></path><path d="M479.3 931.6L538.4 894.9L468.4 871.1Z" fill="#1e1e1e" stroke="#191919"></path><path d="M501.3 847.1L437.4 826.4L468.4 871.1Z" fill="#1f1f1f" stroke="#191919"></path><path d="M468.4 871.1L437.4 826.4L376.6 939.6Z" fill="#1f1f1f" stroke="#191919"></path><path d="M437.4 826.4L334.6 836.1L376.6 939.6Z" fill="#1f1f1f" stroke="#191919"></path><path d="M376.6 939.6L255.7 944.6L376.6 979.9Z" fill="#1d1d1d" stroke="#191919"></path><path d="M537.2 961.6L538.4 894.9L479.3 931.6Z" fill="#191919" stroke="#191919"></path><path d="M538.4 894.9L501.3 847.1L468.4 871.1Z" fill="#242424" stroke="#191919"></path><path d="M334.6 836.1L263.8 922.9L376.6 939.6Z" fill="#212121" stroke="#191919"></path><path d="M263.8 922.9L255.7 944.6L376.6 939.6Z" fill="#252525" stroke="#191919"></path><path d="M260.7 838.1L252.7 922.9L263.8 922.9Z" fill="#1b1b1b" stroke="#191919"></path><path d="M263.8 922.9L252.7 922.9L255.7 944.6Z" fill="#1f1f1f" stroke="#191919"></path><path d="M537.2 961.6L569.2 904.1L538.4 894.9Z" fill="#212121" stroke="#191919"></path><path d="M538.4 894.9L641.2 851.9L501.3 847.1Z" fill="#1f1f1f" stroke="#191919"></path><path d="M427.6 1147L508.3 1103.3L486.4 1030.3Z" fill="#1f1f1f" stroke="#191919"></path><path d="M486.4 1030.3L508.3 1103.3L537.2 961.6Z" fill="#252525" stroke="#191919"></path><path d="M537.2 961.6L620.3 943.9L569.2 904.1Z" fill="#242424" stroke="#191919"></path><path d="M346.4 1199L427.6 1147L355.6 1030.3Z" fill="#191919" stroke="#191919"></path><path d="M355.6 1030.3L427.6 1147L486.4 1030.3Z" fill="#1d1d1d" stroke="#191919"></path><path d="M297.7 747.7L260.7 838.1L334.6 836.1Z" fill="#212121" stroke="#191919"></path><path d="M334.6 836.1L260.7 838.1L263.8 922.9Z" fill="#252525" stroke="#191919"></path><path d="M260.7 838.1L216.7 867.4L252.7 922.9Z" fill="#202020" stroke="#191919"></path><path d="M252.7 922.9L166.9 901.9L255.7 944.6Z" fill="#252525" stroke="#191919"></path><path d="M621.2 1126.3L620.3 943.9L537.2 961.6Z" fill="#252525" stroke="#191919"></path><path d="M641.2 851.9L519.4 768.7L501.3 847.1Z" fill="#1b1b1b" stroke="#191919"></path><path d="M641.2 851.9L538.4 894.9L569.2 904.1Z" fill="#191919" stroke="#191919"></path><path d="M501.3 847.1L519.4 768.7L437.4 826.4Z" fill="#252525" stroke="#191919"></path><path d="M437.4 826.4L382.6 723.4L334.6 836.1Z" fill="#202020" stroke="#191919"></path><path d="M494.3 703.4L382.6 723.4L437.4 826.4Z" fill="#1b1b1b" stroke="#191919"></path><path d="M260.7 838.1L182.9 841.1L216.7 867.4Z" fill="#1b1b1b" stroke="#191919"></path><path d="M382.6 723.4L297.7 747.7L334.6 836.1Z" fill="#242424" stroke="#191919"></path><path d="M583.3 686L520.3 746.7L519.4 768.7Z" fill="#1f1f1f" stroke="#191919"></path><path d="M519.4 768.7L494.3 703.4L437.4 826.4Z" fill="#232323" stroke="#191919"></path><path d="M297.7 747.7L245.8 779.1L260.7 838.1Z" fill="#252525" stroke="#191919"></path><path d="M146.8 1060.3L355.6 1030.3L255.7 944.6Z" fill="#1b1b1b" stroke="#191919"></path><path d="M268.7 1205.3L346.4 1199L355.6 1030.3Z" fill="#242424" stroke="#191919"></path><path d="M427.6 1147L537.3 1193.7L508.3 1103.3Z" fill="#191919" stroke="#191919"></path><path d="M182.9 841.1L166.9 901.9L216.7 867.4Z" fill="#1a1a1a" stroke="#191919"></path><path d="M216.7 867.4L166.9 901.9L252.7 922.9Z" fill="#1a1a1a" stroke="#191919"></path><path d="M245.8 779.1L182.9 841.1L260.7 838.1Z" fill="#242424" stroke="#191919"></path><path d="M659.1 901.9L641.2 851.9L569.2 904.1Z" fill="#191919" stroke="#191919"></path><path d="M620.3 943.9L659.1 901.9L569.2 904.1Z" fill="#1d1d1d" stroke="#191919"></path><path d="M730.1 1053.6L659.1 901.9L620.3 943.9Z" fill="#212121" stroke="#191919"></path><path d="M166.9 901.9L147.8 984.6L255.7 944.6Z" fill="#1a1a1a" stroke="#191919"></path><path d="M509.3 1248L537.3 1193.7L427.6 1147Z" fill="#232323" stroke="#191919"></path><path d="M508.3 1103.3L621.2 1126.3L537.2 961.6Z" fill="#1b1b1b" stroke="#191919"></path><path d="M246.7 540.3L233.8 752.4L297.7 747.7Z" fill="#232323" stroke="#191919"></path><path d="M297.7 747.7L233.8 752.4L245.8 779.1Z" fill="#202020" stroke="#191919"></path><path d="M245.8 779.1L233.8 752.4L182.9 841.1Z" fill="#1a1a1a" stroke="#191919"></path><path d="M532.4 663L494.3 703.4L520.3 746.7Z" fill="#1a1a1a" stroke="#191919"></path><path d="M520.3 746.7L494.3 703.4L519.4 768.7Z" fill="#202020" stroke="#191919"></path><path d="M537.3 1193.7L621.2 1126.3L508.3 1103.3Z" fill="#212121" stroke="#191919"></path><path d="M147.8 984.6L146.8 1060.3L255.7 944.6Z" fill="#1f1f1f" stroke="#191919"></path><path d="M146.8 1060.3L268.7 1205.3L355.6 1030.3Z" fill="#252525" stroke="#191919"></path><path d="M346.4 1199L509.3 1248L427.6 1147Z" fill="#1f1f1f" stroke="#191919"></path><path d="M166.9 901.9L113.9 977.6L147.8 984.6Z" fill="#1d1d1d" stroke="#191919"></path><path d="M147.8 984.6L113.9 977.6L146.8 1060.3Z" fill="#1a1a1a" stroke="#191919"></path><path d="M0 887.1L113.9 977.6L166.9 901.9Z" fill="#242424" stroke="#191919"></path><path d="M659.1 901.9L682.2 851.4L641.2 851.9Z" fill="#1a1a1a" stroke="#191919"></path><path d="M583.3 686L532.4 663L520.3 746.7Z" fill="#1e1e1e" stroke="#191919"></path><path d="M730.1 863.1L682.2 851.4L659.1 901.9Z" fill="#1f1f1f" stroke="#191919"></path><path d="M532.4 663L450.6 658.7L494.3 703.4Z" fill="#202020" stroke="#191919"></path><path d="M494.3 703.4L450.6 658.7L382.6 723.4Z" fill="#1f1f1f" stroke="#191919"></path><path d="M382.6 723.4L246.7 540.3L297.7 747.7Z" fill="#212121" stroke="#191919"></path><path d="M517.4 1254.7L509.3 1248L531.4 1294.4Z" fill="#202020" stroke="#191919"></path><path d="M537.3 1193.7L693.2 1245L621.2 1126.3Z" fill="#212121" stroke="#191919"></path><path d="M531.4 1294.4L509.3 1248L361.6 1340.4Z" fill="#1e1e1e" stroke="#191919"></path><path d="M509.3 1248L517.4 1254.7L537.3 1193.7Z" fill="#191919" stroke="#191919"></path><path d="M50.9 1124L172.7 1173L146.8 1060.3Z" fill="#232323" stroke="#191919"></path><path d="M146.8 1060.3L172.7 1173L268.7 1205.3Z" fill="#191919" stroke="#191919"></path><path d="M583.3 686L519.4 768.7L653.1 710.4Z" fill="#1d1d1d" stroke="#191919"></path><path d="M653.1 710.4L519.4 768.7L641.2 851.9Z" fill="#1f1f1f" stroke="#191919"></path><path d="M738.1 1186.3L730.1 1053.6L621.2 1126.3Z" fill="#202020" stroke="#191919"></path><path d="M621.2 1126.3L730.1 1053.6L620.3 943.9Z" fill="#1b1b1b" stroke="#191919"></path><path d="M223.7 1256.7L248.8 1256.7L268.7 1205.3Z" fill="#1f1f1f" stroke="#191919"></path><path d="M268.7 1205.3L248.8 1256.7L346.4 1199Z" fill="#242424" stroke="#191919"></path><path d="M800 948.6L730.1 863.1L659.1 901.9Z" fill="#1f1f1f" stroke="#191919"></path><path d="M682.2 851.4L653.1 710.4L641.2 851.9Z" fill="#212121" stroke="#191919"></path><path d="M172.7 1173L223.7 1256.7L268.7 1205.3Z" fill="#252525" stroke="#191919"></path><path d="M800 823.1L653.1 710.4L682.2 851.4Z" fill="#1d1d1d" stroke="#191919"></path><path d="M583.3 686L640.2 574L532.4 663Z" fill="#1b1b1b" stroke="#191919"></path><path d="M361.6 1340.4L509.3 1248L346.4 1199Z" fill="#1b1b1b" stroke="#191919"></path><path d="M517.4 1254.7L561.3 1290.4L537.3 1193.7Z" fill="#202020" stroke="#191919"></path><path d="M299.6 1321.7L346.4 1199L248.8 1256.7Z" fill="#1b1b1b" stroke="#191919"></path><path d="M531.4 1294.4L561.3 1290.4L517.4 1254.7Z" fill="#202020" stroke="#191919"></path><path d="M172.7 1173L211.8 1270L223.7 1256.7Z" fill="#242424" stroke="#191919"></path><path d="M223.7 1256.7L211.8 1270L248.8 1256.7Z" fill="#252525" stroke="#191919"></path><path d="M670.1 683.7L649.1 673L653.1 710.4Z" fill="#1d1d1d" stroke="#191919"></path><path d="M653.1 710.4L649.1 673L583.3 686Z" fill="#252525" stroke="#191919"></path><path d="M211.8 1270L299.6 1321.7L248.8 1256.7Z" fill="#1b1b1b" stroke="#191919"></path><path d="M800 708.4L670.1 683.7L653.1 710.4Z" fill="#232323" stroke="#191919"></path><path d="M299.6 1321.7L361.6 1340.4L346.4 1199Z" fill="#1e1e1e" stroke="#191919"></path><path d="M676.2 1358.7L684.2 1320.4L561.3 1290.4Z" fill="#1f1f1f" stroke="#191919"></path><path d="M0 1064.6L50.9 1124L146.8 1060.3Z" fill="#202020" stroke="#191919"></path><path d="M172.7 1173L73.9 1181.3L211.8 1270Z" fill="#1e1e1e" stroke="#191919"></path><path d="M730.1 1053.6L800 948.6L659.1 901.9Z" fill="#232323" stroke="#191919"></path><path d="M730.1 863.1L800 823.1L682.2 851.4Z" fill="#1b1b1b" stroke="#191919"></path><path d="M233.8 752.4L88.8 727.7L182.9 841.1Z" fill="#232323" stroke="#191919"></path><path d="M0 884.9L0 887.1L166.9 901.9Z" fill="#1d1d1d" stroke="#191919"></path><path d="M113.9 977.6L0 1064.6L146.8 1060.3Z" fill="#1e1e1e" stroke="#191919"></path><path d="M159.8 566L88.8 727.7L233.8 752.4Z" fill="#232323" stroke="#191919"></path><path d="M795.1 1135L800 1028.9L730.1 1053.6Z" fill="#1b1b1b" stroke="#191919"></path><path d="M730.1 1053.6L800 1028.9L800 948.6Z" fill="#212121" stroke="#191919"></path><path d="M50.9 1124L73.9 1181.3L172.7 1173Z" fill="#1a1a1a" stroke="#191919"></path><path d="M693.2 1245L738.1 1186.3L621.2 1126.3Z" fill="#1d1d1d" stroke="#191919"></path><path d="M561.3 1290.4L693.2 1245L537.3 1193.7Z" fill="#1b1b1b" stroke="#191919"></path><path d="M0 884.9L166.9 901.9L0 820.4Z" fill="#191919" stroke="#191919"></path><path d="M0 820.4L166.9 901.9L182.9 841.1Z" fill="#1e1e1e" stroke="#191919"></path><path d="M800 948.6L800 823.1L730.1 863.1Z" fill="#1e1e1e" stroke="#191919"></path><path d="M0 887.1L0 1064.6L113.9 977.6Z" fill="#242424" stroke="#191919"></path><path d="M50.9 1124L0 1182.3L73.9 1181.3Z" fill="#212121" stroke="#191919"></path><path d="M800 679.7L663.2 624.7L670.1 683.7Z" fill="#1b1b1b" stroke="#191919"></path><path d="M670.1 683.7L663.2 624.7L649.1 673Z" fill="#1b1b1b" stroke="#191919"></path><path d="M649.1 673L663.2 624.7L583.3 686Z" fill="#1e1e1e" stroke="#191919"></path><path d="M611.3 527.3L376.6 527.3L450.6 658.7Z" fill="#191919" stroke="#191919"></path><path d="M88.8 727.7L41.9 743.7L182.9 841.1Z" fill="#232323" stroke="#191919"></path><path d="M738.1 1186.3L795.1 1135L730.1 1053.6Z" fill="#212121" stroke="#191919"></path><path d="M800 1170L795.1 1135L738.1 1186.3Z" fill="#232323" stroke="#191919"></path><path d="M41.9 743.7L0 820.4L182.9 841.1Z" fill="#1a1a1a" stroke="#191919"></path><path d="M611.3 527.3L450.6 658.7L532.4 663Z" fill="#1d1d1d" stroke="#191919"></path><path d="M450.6 658.7L362.6 526L382.6 723.4Z" fill="#1f1f1f" stroke="#191919"></path><path d="M88.8 727.7L31.9 678.4L41.9 743.7Z" fill="#212121" stroke="#191919"></path><path d="M376.6 527.3L362.6 526L450.6 658.7Z" fill="#1e1e1e" stroke="#191919"></path><path d="M684.2 1320.4L734.1 1254.7L693.2 1245Z" fill="#202020" stroke="#191919"></path><path d="M693.2 1245L734.1 1254.7L738.1 1186.3Z" fill="#232323" stroke="#191919"></path><path d="M684.2 1320.4L693.2 1245L561.3 1290.4Z" fill="#1a1a1a" stroke="#191919"></path><path d="M800 1188.3L800 1170L738.1 1186.3Z" fill="#1e1e1e" stroke="#191919"></path><path d="M795.1 1135L800 1170L800 1028.9Z" fill="#202020" stroke="#191919"></path><path d="M0 1064.6L0 1142L50.9 1124Z" fill="#1e1e1e" stroke="#191919"></path><path d="M7.9 1316.7L149.9 1381.4L211.8 1270Z" fill="#202020" stroke="#191919"></path><path d="M362.6 526L246.7 540.3L382.6 723.4Z" fill="#1a1a1a" stroke="#191919"></path><path d="M665.2 514.3L640.2 574L739.1 553.3Z" fill="#1b1b1b" stroke="#191919"></path><path d="M663.2 624.7L640.2 574L583.3 686Z" fill="#1f1f1f" stroke="#191919"></path><path d="M734.1 1254.7L800 1188.3L738.1 1186.3Z" fill="#1e1e1e" stroke="#191919"></path><path d="M676.2 1358.7L561.3 1290.4L590.2 1527.1Z" fill="#242424" stroke="#191919"></path><path d="M734.1 1254.7L800 1279.7L800 1188.3Z" fill="#1e1e1e" stroke="#191919"></path><path d="M376.6 527.3L348.7 508L362.6 526Z" fill="#212121" stroke="#191919"></path><path d="M362.6 526L348.7 508L246.7 540.3Z" fill="#191919" stroke="#191919"></path><path d="M460.4 433.3L348.7 508L376.6 527.3Z" fill="#1a1a1a" stroke="#191919"></path><path d="M0 1142L0 1182.3L50.9 1124Z" fill="#252525" stroke="#191919"></path><path d="M211.8 1270L149.9 1381.4L299.6 1321.7Z" fill="#1d1d1d" stroke="#191919"></path><path d="M193.8 518.6L159.8 566L246.7 540.3Z" fill="#212121" stroke="#191919"></path><path d="M246.7 540.3L159.8 566L233.8 752.4Z" fill="#212121" stroke="#191919"></path><path d="M800 823.1L800 708.4L653.1 710.4Z" fill="#1e1e1e" stroke="#191919"></path><path d="M159.8 566L31.9 678.4L88.8 727.7Z" fill="#1f1f1f" stroke="#191919"></path><path d="M41.9 743.7L0 687.7L0 820.4Z" fill="#1a1a1a" stroke="#191919"></path><path d="M665.2 514.3L611.3 527.3L640.2 574Z" fill="#242424" stroke="#191919"></path><path d="M640.2 574L611.3 527.3L532.4 663Z" fill="#1b1b1b" stroke="#191919"></path><path d="M499.3 1507.9L561.3 1290.4L531.4 1294.4Z" fill="#1b1b1b" stroke="#191919"></path><path d="M684.2 1320.4L800 1279.7L734.1 1254.7Z" fill="#232323" stroke="#191919"></path><path d="M800 708.4L800 679.7L670.1 683.7Z" fill="#1f1f1f" stroke="#191919"></path><path d="M0 598L0 687.7L31.9 678.4Z" fill="#252525" stroke="#191919"></path><path d="M31.9 678.4L0 687.7L41.9 743.7Z" fill="#212121" stroke="#191919"></path><path d="M159.8 464.3L193.8 518.6L216.8 410.9Z" fill="#1e1e1e" stroke="#191919"></path><path d="M159.8 566L0 598L31.9 678.4Z" fill="#1a1a1a" stroke="#191919"></path><path d="M7.9 1316.7L211.8 1270L73.9 1181.3Z" fill="#202020" stroke="#191919"></path><path d="M299.6 1321.7L246.8 1427.4L361.6 1340.4Z" fill="#1d1d1d" stroke="#191919"></path><path d="M361.6 1340.4L428.6 1474.1L531.4 1294.4Z" fill="#1e1e1e" stroke="#191919"></path><path d="M149.9 1381.4L246.8 1427.4L299.6 1321.7Z" fill="#1a1a1a" stroke="#191919"></path><path d="M733.1 1408.4L800 1279.7L684.2 1320.4Z" fill="#191919" stroke="#191919"></path><path d="M739.1 553.3L640.2 574L663.2 624.7Z" fill="#212121" stroke="#191919"></path><path d="M611.3 527.3L460.4 433.3L376.6 527.3Z" fill="#1d1d1d" stroke="#191919"></path><path d="M342.7 1497.1L428.6 1474.1L361.6 1340.4Z" fill="#1d1d1d" stroke="#191919"></path><path d="M800 679.7L739.1 553.3L663.2 624.7Z" fill="#1d1d1d" stroke="#191919"></path><path d="M636.2 443.6L460.4 433.3L611.3 527.3Z" fill="#1b1b1b" stroke="#191919"></path><path d="M216.8 410.9L193.8 518.6L246.7 540.3Z" fill="#1d1d1d" stroke="#191919"></path><path d="M0 1182.3L7.9 1316.7L73.9 1181.3Z" fill="#1a1a1a" stroke="#191919"></path><path d="M149.9 1381.4L196.7 1453.4L246.8 1427.4Z" fill="#1d1d1d" stroke="#191919"></path><path d="M87.9 1551.1L196.7 1453.4L149.9 1381.4Z" fill="#242424" stroke="#191919"></path><path d="M246.8 1427.4L342.7 1497.1L361.6 1340.4Z" fill="#242424" stroke="#191919"></path><path d="M203.8 1541.1L342.7 1497.1L246.8 1427.4Z" fill="#1a1a1a" stroke="#191919"></path><path d="M398.4 1512.1L463.3 1501.1L428.6 1474.1Z" fill="#242424" stroke="#191919"></path><path d="M428.6 1474.1L499.3 1507.9L531.4 1294.4Z" fill="#1a1a1a" stroke="#191919"></path><path d="M676.2 1358.7L733.1 1408.4L684.2 1320.4Z" fill="#242424" stroke="#191919"></path><path d="M9.9 565L0 598L159.8 566Z" fill="#1e1e1e" stroke="#191919"></path><path d="M0 1182.3L0 1326.7L7.9 1316.7Z" fill="#1b1b1b" stroke="#191919"></path><path d="M7.9 1316.7L0 1395.4L149.9 1381.4Z" fill="#191919" stroke="#191919"></path><path d="M342.7 1497.1L398.4 1512.1L428.6 1474.1Z" fill="#232323" stroke="#191919"></path><path d="M299.7 390.6L246.7 540.3L348.7 508Z" fill="#252525" stroke="#191919"></path><path d="M193.8 518.6L159.8 464.3L159.8 566Z" fill="#191919" stroke="#191919"></path><path d="M460.4 433.3L347.6 408.6L348.7 508Z" fill="#1a1a1a" stroke="#191919"></path><path d="M641.1 1523.1L733.1 1408.4L676.2 1358.7Z" fill="#1b1b1b" stroke="#191919"></path><path d="M486.4 1569.6L499.3 1507.9L463.3 1501.1Z" fill="#1e1e1e" stroke="#191919"></path><path d="M463.3 1501.1L499.3 1507.9L428.6 1474.1Z" fill="#191919" stroke="#191919"></path><path d="M81.9 486.3L9.9 565L159.8 566Z" fill="#232323" stroke="#191919"></path><path d="M665.2 514.3L636.2 443.6L611.3 527.3Z" fill="#1a1a1a" stroke="#191919"></path><path d="M285.6 352.1L299.7 390.6L347.6 408.6Z" fill="#232323" stroke="#191919"></path><path d="M743.1 413.9L636.2 443.6L665.2 514.3Z" fill="#232323" stroke="#191919"></path><path d="M800 679.7L800 548L739.1 553.3Z" fill="#191919" stroke="#191919"></path><path d="M739.1 553.3L786.1 460.6L665.2 514.3Z" fill="#1d1d1d" stroke="#191919"></path><path d="M85.9 464.6L81.9 486.3L159.8 464.3Z" fill="#252525" stroke="#191919"></path><path d="M159.8 464.3L81.9 486.3L159.8 566Z" fill="#1f1f1f" stroke="#191919"></path><path d="M429.4 369.6L347.6 408.6L460.4 433.3Z" fill="#191919" stroke="#191919"></path><path d="M347.6 408.6L299.7 390.6L348.7 508Z" fill="#232323" stroke="#191919"></path><path d="M299.7 390.6L216.8 410.9L246.7 540.3Z" fill="#191919" stroke="#191919"></path><path d="M39.9 334.1L85.9 464.6L159.8 464.3Z" fill="#1a1a1a" stroke="#191919"></path><path d="M81.9 486.3L0 500.3L9.9 565Z" fill="#232323" stroke="#191919"></path><path d="M529.4 352.9L429.4 369.6L460.4 433.3Z" fill="#1e1e1e" stroke="#191919"></path><path d="M0 1326.7L0 1395.4L7.9 1316.7Z" fill="#202020" stroke="#191919"></path><path d="M486.4 1569.6L398.4 1512.1L443.4 1637.9Z" fill="#1d1d1d" stroke="#191919"></path><path d="M486.4 1569.6L590.2 1527.1L499.3 1507.9Z" fill="#252525" stroke="#191919"></path><path d="M499.3 1507.9L590.2 1527.1L561.3 1290.4Z" fill="#191919" stroke="#191919"></path><path d="M800 1470.1L800 1419.4L733.1 1408.4Z" fill="#1f1f1f" stroke="#191919"></path><path d="M733.1 1408.4L800 1419.4L800 1279.7Z" fill="#1b1b1b" stroke="#191919"></path><path d="M743.1 413.9L638.2 396.9L636.2 443.6Z" fill="#1e1e1e" stroke="#191919"></path><path d="M636.2 443.6L529.4 352.9L460.4 433.3Z" fill="#1b1b1b" stroke="#191919"></path><path d="M590.2 1527.1L641.1 1523.1L676.2 1358.7Z" fill="#1e1e1e" stroke="#191919"></path><path d="M85.9 464.6L0 500.3L81.9 486.3Z" fill="#252525" stroke="#191919"></path><path d="M9.9 565L0 500.3L0 598Z" fill="#232323" stroke="#191919"></path><path d="M398.4 1512.1L486.4 1569.6L463.3 1501.1Z" fill="#1e1e1e" stroke="#191919"></path><path d="M590.2 1527.1L638.2 1613.9L641.1 1523.1Z" fill="#212121" stroke="#191919"></path><path d="M489.3 1623.6L486.4 1569.6L443.4 1637.9Z" fill="#242424" stroke="#191919"></path><path d="M203.8 1541.1L246.8 1427.4L196.7 1453.4Z" fill="#1a1a1a" stroke="#191919"></path><path d="M87.9 1551.1L203.8 1541.1L196.7 1453.4Z" fill="#1b1b1b" stroke="#191919"></path><path d="M638.2 396.9L529.4 352.9L636.2 443.6Z" fill="#252525" stroke="#191919"></path><path d="M354.7 253.9L285.6 352.1L347.6 408.6Z" fill="#1e1e1e" stroke="#191919"></path><path d="M354.7 253.9L347.6 408.6L429.4 369.6Z" fill="#1b1b1b" stroke="#191919"></path><path d="M299.7 390.6L285.6 352.1L216.8 410.9Z" fill="#1a1a1a" stroke="#191919"></path><path d="M0 382.9L0 428.6L85.9 464.6Z" fill="#1b1b1b" stroke="#191919"></path><path d="M85.9 464.6L0 428.6L0 500.3Z" fill="#1d1d1d" stroke="#191919"></path><path d="M800 548L786.1 460.6L739.1 553.3Z" fill="#1d1d1d" stroke="#191919"></path><path d="M529.4 352.9L456.3 332.6L429.4 369.6Z" fill="#212121" stroke="#191919"></path><path d="M786.1 460.6L743.1 413.9L665.2 514.3Z" fill="#232323" stroke="#191919"></path><path d="M638.2 396.9L626.3 292.9L529.4 352.9Z" fill="#1f1f1f" stroke="#191919"></path><path d="M641.1 1523.1L753.1 1502.9L733.1 1408.4Z" fill="#202020" stroke="#191919"></path><path d="M638.2 1613.9L753.1 1502.9L641.1 1523.1Z" fill="#252525" stroke="#191919"></path><path d="M753.1 1502.9L800 1470.1L733.1 1408.4Z" fill="#1b1b1b" stroke="#191919"></path><path d="M0 1395.4L3.9 1464.9L149.9 1381.4Z" fill="#1a1a1a" stroke="#191919"></path><path d="M800 548L800 422.6L786.1 460.6Z" fill="#202020" stroke="#191919"></path><path d="M786.1 460.6L800 422.6L743.1 413.9Z" fill="#1e1e1e" stroke="#191919"></path><path d="M743.1 413.9L626.3 292.9L638.2 396.9Z" fill="#1a1a1a" stroke="#191919"></path><path d="M490.3 182.1L411.4 216.4L456.3 332.6Z" fill="#1f1f1f" stroke="#191919"></path><path d="M800 422.6L800 422.3L743.1 413.9Z" fill="#232323" stroke="#191919"></path><path d="M375.6 1637.9L398.4 1512.1L342.7 1497.1Z" fill="#232323" stroke="#191919"></path><path d="M486.4 1569.6L489.3 1623.6L590.2 1527.1Z" fill="#1f1f1f" stroke="#191919"></path><path d="M39.9 334.1L159.8 464.3L135.9 279.9Z" fill="#1f1f1f" stroke="#191919"></path><path d="M3.9 1464.9L87.9 1551.1L149.9 1381.4Z" fill="#1b1b1b" stroke="#191919"></path><path d="M338.6 1648.6L375.6 1637.9L342.7 1497.1Z" fill="#212121" stroke="#191919"></path><path d="M275.7 1632.6L342.7 1497.1L203.8 1541.1Z" fill="#252525" stroke="#191919"></path><path d="M375.6 1637.9L443.4 1637.9L398.4 1512.1Z" fill="#1e1e1e" stroke="#191919"></path><path d="M3.9 1464.9L0 1505.1L87.9 1551.1Z" fill="#232323" stroke="#191919"></path><path d="M0 1395.4L0 1505.1L3.9 1464.9Z" fill="#1a1a1a" stroke="#191919"></path><path d="M0 1505.1L78.9 1559.6L87.9 1551.1Z" fill="#1f1f1f" stroke="#191919"></path><path d="M182.8 1625.9L203.7 1613.9L203.8 1541.1Z" fill="#202020" stroke="#191919"></path><path d="M182.8 1625.9L203.8 1541.1L87.9 1551.1Z" fill="#191919" stroke="#191919"></path><path d="M203.7 1613.9L275.7 1632.6L203.8 1541.1Z" fill="#212121" stroke="#191919"></path><path d="M275.7 1632.6L338.6 1648.6L342.7 1497.1Z" fill="#232323" stroke="#191919"></path><path d="M384.6 1660.3L475.4 1652.3L443.4 1637.9Z" fill="#1b1b1b" stroke="#191919"></path><path d="M616.3 1658.3L638.2 1613.9L489.3 1623.6Z" fill="#1a1a1a" stroke="#191919"></path><path d="M489.3 1623.6L638.2 1613.9L590.2 1527.1Z" fill="#1d1d1d" stroke="#191919"></path><path d="M753.1 1502.9L800 1540.6L800 1470.1Z" fill="#252525" stroke="#191919"></path><path d="M443.4 1637.9L475.4 1652.3L489.3 1623.6Z" fill="#252525" stroke="#191919"></path><path d="M384.6 1660.3L443.4 1637.9L375.6 1637.9Z" fill="#1a1a1a" stroke="#191919"></path><path d="M285.6 352.1L215.7 286.1L216.8 410.9Z" fill="#242424" stroke="#191919"></path><path d="M316.6 244.9L215.7 286.1L285.6 352.1Z" fill="#212121" stroke="#191919"></path><path d="M388.4 1800L384.6 1660.3L320.7 1800Z" fill="#1d1d1d" stroke="#191919"></path><path d="M338.6 1648.6L384.6 1660.3L375.6 1637.9Z" fill="#1e1e1e" stroke="#191919"></path><path d="M800 1567.9L800 1540.6L753.1 1502.9Z" fill="#1a1a1a" stroke="#191919"></path><path d="M800 309.9L626.3 292.9L743.1 413.9Z" fill="#232323" stroke="#191919"></path><path d="M456.3 332.6L354.7 253.9L429.4 369.6Z" fill="#1f1f1f" stroke="#191919"></path><path d="M78.9 1559.6L182.8 1625.9L87.9 1551.1Z" fill="#252525" stroke="#191919"></path><path d="M203.7 1613.9L164.9 1676.3L275.7 1632.6Z" fill="#1d1d1d" stroke="#191919"></path><path d="M275.7 1632.6L230.7 1756.3L338.6 1648.6Z" fill="#1f1f1f" stroke="#191919"></path><path d="M39.9 334.1L0 382.9L85.9 464.6Z" fill="#1f1f1f" stroke="#191919"></path><path d="M411.4 216.4L354.7 253.9L456.3 332.6Z" fill="#252525" stroke="#191919"></path><path d="M411.4 216.4L316.6 244.9L354.7 253.9Z" fill="#1a1a1a" stroke="#191919"></path><path d="M354.7 253.9L316.6 244.9L285.6 352.1Z" fill="#191919" stroke="#191919"></path><path d="M638.2 1613.9L800 1567.9L753.1 1502.9Z" fill="#1a1a1a" stroke="#191919"></path><path d="M135.9 279.9L216.8 410.9L215.7 286.1Z" fill="#242424" stroke="#191919"></path><path d="M135.9 279.9L159.8 464.3L216.8 410.9Z" fill="#202020" stroke="#191919"></path><path d="M475.4 1652.3L616.3 1658.3L489.3 1623.6Z" fill="#1f1f1f" stroke="#191919"></path><path d="M638.2 1613.9L800 1645.3L800 1567.9Z" fill="#202020" stroke="#191919"></path><path d="M620.2 1726.3L616.3 1658.3L475.4 1652.3Z" fill="#1e1e1e" stroke="#191919"></path><path d="M245.8 227.4L135.9 279.9L215.7 286.1Z" fill="#1e1e1e" stroke="#191919"></path><path d="M490.3 182.1L456.3 332.6L529.4 352.9Z" fill="#202020" stroke="#191919"></path><path d="M316.6 244.9L245.8 227.4L215.7 286.1Z" fill="#242424" stroke="#191919"></path><path d="M222.7 169.4L245.8 227.4L267.6 139.7Z" fill="#1e1e1e" stroke="#191919"></path><path d="M82.8 1696.6L182.8 1625.9L78.9 1559.6Z" fill="#1d1d1d" stroke="#191919"></path><path d="M82.8 1696.6L164.9 1676.3L182.8 1625.9Z" fill="#202020" stroke="#191919"></path><path d="M182.8 1625.9L164.9 1676.3L203.7 1613.9Z" fill="#212121" stroke="#191919"></path><path d="M609.3 1800L620.2 1726.3L475.4 1652.3Z" fill="#1e1e1e" stroke="#191919"></path><path d="M800 422.3L800 309.9L743.1 413.9Z" fill="#1a1a1a" stroke="#191919"></path><path d="M541.2 181.1L490.3 182.1L529.4 352.9Z" fill="#1b1b1b" stroke="#191919"></path><path d="M0 1505.1L0 1607.9L78.9 1559.6Z" fill="#1f1f1f" stroke="#191919"></path><path d="M170.8 159.7L109.8 240.1L135.9 279.9Z" fill="#1a1a1a" stroke="#191919"></path><path d="M135.9 279.9L109.8 240.1L39.9 334.1Z" fill="#202020" stroke="#191919"></path><path d="M39.9 334.1L0 210.1L0 382.9Z" fill="#232323" stroke="#191919"></path><path d="M541.2 181.1L529.4 352.9L626.3 292.9Z" fill="#1f1f1f" stroke="#191919"></path><path d="M267.6 139.7L245.8 227.4L316.6 244.9Z" fill="#1f1f1f" stroke="#191919"></path><path d="M245.8 227.4L170.8 159.7L135.9 279.9Z" fill="#242424" stroke="#191919"></path><path d="M647.1 160.7L541.2 181.1L626.3 292.9Z" fill="#1a1a1a" stroke="#191919"></path><path d="M641.2 1724.6L800 1645.3L638.2 1613.9Z" fill="#202020" stroke="#191919"></path><path d="M778.1 1781.3L803.1 1648.6L800 1645.3Z" fill="#1d1d1d" stroke="#191919"></path><path d="M800 1645.3L803.1 1648.6L800 1567.9Z" fill="#212121" stroke="#191919"></path><path d="M800 1567.9L803.1 1648.6L800 1540.6Z" fill="#1e1e1e" stroke="#191919"></path><path d="M800 1540.6L803.1 1648.6L800 1470.1Z" fill="#1a1a1a" stroke="#191919"></path><path d="M800 1470.1L803.1 1648.6L800 1419.4Z" fill="#1e1e1e" stroke="#191919"></path><path d="M800 1419.4L803.1 1648.6L800 1279.7Z" fill="#202020" stroke="#191919"></path><path d="M800 1279.7L803.1 1648.6L800 1188.3Z" fill="#242424" stroke="#191919"></path><path d="M800 1188.3L803.1 1648.6L800 1170Z" fill="#252525" stroke="#191919"></path><path d="M800 1170L803.1 1648.6L800 1028.9Z" fill="#1a1a1a" stroke="#191919"></path><path d="M800 1028.9L803.1 1648.6L800 948.6Z" fill="#1f1f1f" stroke="#191919"></path><path d="M800 948.6L803.1 1648.6L800 823.1Z" fill="#191919" stroke="#191919"></path><path d="M800 823.1L803.1 1648.6L800 708.4Z" fill="#1b1b1b" stroke="#191919"></path><path d="M800 708.4L803.1 1648.6L800 679.7Z" fill="#1f1f1f" stroke="#191919"></path><path d="M800 679.7L803.1 1648.6L800 548Z" fill="#212121" stroke="#191919"></path><path d="M800 548L803.1 1648.6L800 422.6Z" fill="#212121" stroke="#191919"></path><path d="M800 422.6L803.1 1648.6L800 422.3Z" fill="#212121" stroke="#191919"></path><path d="M800 422.3L803.1 1648.6L800 309.9Z" fill="#1e1e1e" stroke="#191919"></path><path d="M388.4 1800L475.4 1652.3L384.6 1660.3Z" fill="#191919" stroke="#191919"></path><path d="M616.3 1658.3L641.2 1724.6L638.2 1613.9Z" fill="#1e1e1e" stroke="#191919"></path><path d="M535.3 125.7L456.4 165.1L490.3 182.1Z" fill="#1b1b1b" stroke="#191919"></path><path d="M490.3 182.1L456.4 165.1L411.4 216.4Z" fill="#232323" stroke="#191919"></path><path d="M620.2 1726.3L641.2 1724.6L616.3 1658.3Z" fill="#1a1a1a" stroke="#191919"></path><path d="M0 1607.9L82.8 1696.6L78.9 1559.6Z" fill="#202020" stroke="#191919"></path><path d="M164.9 1676.3L230.7 1756.3L275.7 1632.6Z" fill="#202020" stroke="#191919"></path><path d="M267.6 139.7L316.6 244.9L411.4 216.4Z" fill="#232323" stroke="#191919"></path><path d="M803.1 1648.6L800 245.1L800 309.9Z" fill="#1b1b1b" stroke="#191919"></path><path d="M800 309.9L800 245.1L626.3 292.9Z" fill="#202020" stroke="#191919"></path><path d="M191.8 1800L230.7 1756.3L164.9 1676.3Z" fill="#212121" stroke="#191919"></path><path d="M288.6 106.4L267.6 139.7L411.4 216.4Z" fill="#1a1a1a" stroke="#191919"></path><path d="M222.7 169.4L170.8 159.7L245.8 227.4Z" fill="#212121" stroke="#191919"></path><path d="M159.9 62.7L170.8 159.7L222.7 169.4Z" fill="#1d1d1d" stroke="#191919"></path><path d="M109.8 240.1L0 210.1L39.9 334.1Z" fill="#1d1d1d" stroke="#191919"></path><path d="M800 245.1L647.1 160.7L626.3 292.9Z" fill="#232323" stroke="#191919"></path><path d="M541.2 181.1L535.3 125.7L490.3 182.1Z" fill="#1a1a1a" stroke="#191919"></path><path d="M456.4 165.1L288.6 106.4L411.4 216.4Z" fill="#232323" stroke="#191919"></path><path d="M320.7 1800L384.6 1660.3L338.6 1648.6Z" fill="#1f1f1f" stroke="#191919"></path><path d="M620.2 1726.3L609.3 1800L641.2 1724.6Z" fill="#1f1f1f" stroke="#191919"></path><path d="M604.2 106.4L535.3 125.7L541.2 181.1Z" fill="#1f1f1f" stroke="#191919"></path><path d="M290.6 1800L338.6 1648.6L230.7 1756.3Z" fill="#1f1f1f" stroke="#191919"></path><path d="M290.6 1800L320.7 1800L338.6 1648.6Z" fill="#232323" stroke="#191919"></path><path d="M0 1607.9L0 1700.6L82.8 1696.6Z" fill="#191919" stroke="#191919"></path><path d="M82.8 1696.6L92.8 1763.3L164.9 1676.3Z" fill="#202020" stroke="#191919"></path><path d="M191.8 1800L290.6 1800L230.7 1756.3Z" fill="#212121" stroke="#191919"></path><path d="M0 141.4L0 210.1L109.8 240.1Z" fill="#1d1d1d" stroke="#191919"></path><path d="M461.3 74.4L288.6 106.4L456.4 165.1Z" fill="#1b1b1b" stroke="#191919"></path><path d="M267.6 139.7L159.9 62.7L222.7 169.4Z" fill="#1e1e1e" stroke="#191919"></path><path d="M170.8 159.7L0 141.4L109.8 240.1Z" fill="#232323" stroke="#191919"></path><path d="M0 1764.3L92.8 1763.3L82.8 1696.6Z" fill="#232323" stroke="#191919"></path><path d="M388.4 1800L609.3 1800L475.4 1652.3Z" fill="#202020" stroke="#191919"></path><path d="M641.2 1724.6L778.1 1781.3L800 1645.3Z" fill="#252525" stroke="#191919"></path><path d="M92.8 1763.3L191.8 1800L164.9 1676.3Z" fill="#202020" stroke="#191919"></path><path d="M647.1 160.7L604.2 106.4L541.2 181.1Z" fill="#1e1e1e" stroke="#191919"></path><path d="M800 245.1L793.1 181.1L647.1 160.7Z" fill="#1b1b1b" stroke="#191919"></path><path d="M669.1 100.4L604.2 106.4L647.1 160.7Z" fill="#212121" stroke="#191919"></path><path d="M535.3 125.7L461.3 74.4L456.4 165.1Z" fill="#1e1e1e" stroke="#191919"></path><path d="M609.3 1800L664.2 1800L641.2 1724.6Z" fill="#1d1d1d" stroke="#191919"></path><path d="M507.4 10.7L461.3 74.4L535.3 125.7Z" fill="#232323" stroke="#191919"></path><path d="M664.2 1800L713.1 1800L641.2 1724.6Z" fill="#232323" stroke="#191919"></path><path d="M793.1 181.1L669.1 100.4L647.1 160.7Z" fill="#191919" stroke="#191919"></path><path d="M529.3 0L507.4 10.7L535.3 125.7Z" fill="#252525" stroke="#191919"></path><path d="M713.1 1800L778.1 1781.3L641.2 1724.6Z" fill="#1a1a1a" stroke="#191919"></path><path d="M0 1700.6L0 1764.3L82.8 1696.6Z" fill="#252525" stroke="#191919"></path><path d="M92.8 1763.3L49.9 1800L191.8 1800Z" fill="#252525" stroke="#191919"></path><path d="M0 1764.3L49.9 1800L92.8 1763.3Z" fill="#252525" stroke="#191919"></path><path d="M159.9 62.7L267.6 139.7L288.6 106.4Z" fill="#252525" stroke="#191919"></path><path d="M0 113.7L0 141.4L170.8 159.7Z" fill="#1d1d1d" stroke="#191919"></path><path d="M713.1 1800L800 1800L778.1 1781.3Z" fill="#1b1b1b" stroke="#191919"></path><path d="M778.1 1781.3L800 1800L803.1 1648.6Z" fill="#242424" stroke="#191919"></path><path d="M253.7 16.7L159.9 62.7L288.6 106.4Z" fill="#1b1b1b" stroke="#191919"></path><path d="M0 1764.3L0 1800L49.9 1800Z" fill="#191919" stroke="#191919"></path><path d="M3.9 95.4L0 113.7L170.8 159.7Z" fill="#242424" stroke="#191919"></path><path d="M800 245.1L800 92.4L793.1 181.1Z" fill="#1b1b1b" stroke="#191919"></path><path d="M793.1 181.1L800 92.4L669.1 100.4Z" fill="#202020" stroke="#191919"></path><path d="M602.2 20.7L535.3 125.7L604.2 106.4Z" fill="#1a1a1a" stroke="#191919"></path><path d="M803.1 1648.6L800 92.4L800 245.1Z" fill="#1b1b1b" stroke="#191919"></path><path d="M159.9 62.7L3.9 95.4L170.8 159.7Z" fill="#202020" stroke="#191919"></path><path d="M602.2 20.7L604.2 106.4L669.1 100.4Z" fill="#1e1e1e" stroke="#191919"></path><path d="M271.7 0L253.7 16.7L288.6 106.4Z" fill="#1e1e1e" stroke="#191919"></path><path d="M341.6 0L288.6 106.4L461.3 74.4Z" fill="#232323" stroke="#191919"></path><path d="M159.9 62.7L77.8 0L3.9 95.4Z" fill="#191919" stroke="#191919"></path><path d="M614.2 0L602.2 20.7L647.1 0Z" fill="#202020" stroke="#191919"></path><path d="M507.4 10.7L427.4 0L461.3 74.4Z" fill="#1b1b1b" stroke="#191919"></path><path d="M529.3 0L427.4 0L507.4 10.7Z" fill="#1d1d1d" stroke="#191919"></path><path d="M427.4 0L341.6 0L461.3 74.4Z" fill="#191919" stroke="#191919"></path><path d="M602.2 20.7L529.3 0L535.3 125.7Z" fill="#1b1b1b" stroke="#191919"></path><path d="M341.6 0L271.7 0L288.6 106.4Z" fill="#1a1a1a" stroke="#191919"></path><path d="M253.7 16.7L77.8 0L159.9 62.7Z" fill="#1e1e1e" stroke="#191919"></path><path d="M647.1 0L602.2 20.7L669.1 100.4Z" fill="#202020" stroke="#191919"></path><path d="M602.2 20.7L614.2 0L529.3 0Z" fill="#191919" stroke="#191919"></path><path d="M800 22.7L647.1 0L669.1 100.4Z" fill="#1f1f1f" stroke="#191919"></path><path d="M271.7 0L77.8 0L253.7 16.7Z" fill="#1b1b1b" stroke="#191919"></path><path d="M803.1 1648.6L800 22.7L800 92.4Z" fill="#1d1d1d" stroke="#191919"></path><path d="M800 92.4L800 22.7L669.1 100.4Z" fill="#191919" stroke="#191919"></path><path d="M77.8 0L63.9 0L3.9 95.4Z" fill="#1d1d1d" stroke="#191919"></path><path d="M803.1 1648.6L800 0L800 22.7Z" fill="#202020" stroke="#191919"></path><path d="M800 22.7L800 0L647.1 0Z" fill="#1a1a1a" stroke="#191919"></path><path d="M63.9 0L0 0L3.9 95.4Z" fill="#252525" stroke="#191919"></path><path d="M3.9 95.4L0 0L0 113.7Z" fill="#232323" stroke="#191919"></path></g></svg>