<svg id="visual" viewBox="0 0 450 900" width="450" height="900" xmlns="http://www.w3.org/2000/svg" xmlns:xlink="http://www.w3.org/1999/xlink" version="1.1"><g stroke-width="2" stroke-linejoin="bevel"><path d="M328 455L450 483L450 338Z" fill="#121212" stroke="#111111"></path><path d="M450 338L265 308L328 455Z" fill="#141414" stroke="#111111"></path><path d="M328 455L450 600L450 483Z" fill="#111111" stroke="#111111"></path><path d="M450 338L450 167L265 308Z" fill="#121212" stroke="#111111"></path><path d="M119 486L284 641L328 455Z" fill="#121212" stroke="#111111"></path><path d="M328 455L284 641L450 600Z" fill="#131313" stroke="#111111"></path><path d="M178 147L172 291L265 308Z" fill="#141414" stroke="#111111"></path><path d="M265 308L119 486L328 455Z" fill="#111111" stroke="#111111"></path><path d="M172 291L119 486L265 308Z" fill="#121212" stroke="#111111"></path><path d="M450 167L303 113L265 308Z" fill="#141414" stroke="#111111"></path><path d="M303 113L178 147L265 308Z" fill="#131313" stroke="#111111"></path><path d="M0 287L0 470L119 486Z" fill="#141414" stroke="#111111"></path><path d="M119 486L107 600L284 641Z" fill="#131313" stroke="#111111"></path><path d="M284 641L312 754L450 600Z" fill="#131313" stroke="#111111"></path><path d="M186 792L312 754L284 641Z" fill="#131313" stroke="#111111"></path><path d="M312 754L450 766L450 600Z" fill="#131313" stroke="#111111"></path><path d="M119 486L0 580L107 600Z" fill="#121212" stroke="#111111"></path><path d="M0 287L119 486L172 291Z" fill="#131313" stroke="#111111"></path><path d="M450 167L450 0L303 113Z" fill="#121212" stroke="#111111"></path><path d="M303 113L180 0L178 147Z" fill="#121212" stroke="#111111"></path><path d="M178 147L0 287L172 291Z" fill="#121212" stroke="#111111"></path><path d="M450 0L288 0L303 113Z" fill="#141414" stroke="#111111"></path><path d="M178 147L0 117L0 287Z" fill="#121212" stroke="#111111"></path><path d="M0 470L0 580L119 486Z" fill="#131313" stroke="#111111"></path><path d="M107 600L186 792L284 641Z" fill="#131313" stroke="#111111"></path><path d="M0 727L186 792L107 600Z" fill="#141414" stroke="#111111"></path><path d="M312 754L450 900L450 766Z" fill="#131313" stroke="#111111"></path><path d="M288 0L180 0L303 113Z" fill="#131313" stroke="#111111"></path><path d="M288 900L450 900L312 754Z" fill="#111111" stroke="#111111"></path><path d="M180 0L0 117L178 147Z" fill="#141414" stroke="#111111"></path><path d="M186 792L288 900L312 754Z" fill="#121212" stroke="#111111"></path><path d="M0 580L0 727L107 600Z" fill="#111111" stroke="#111111"></path><path d="M186 792L179 900L288 900Z" fill="#141414" stroke="#111111"></path><path d="M0 900L179 900L186 792Z" fill="#131313" stroke="#111111"></path><path d="M180 0L0 0L0 117Z" fill="#111111" stroke="#111111"></path><path d="M0 727L0 900L186 792Z" fill="#141414" stroke="#111111"></path></g></svg>