<svg viewBox="0 0 200 200" xmlns="http://www.w3.org/2000/svg">
<defs>
  <filter id="shadow">
        <feDropShadow dx="0.2" dy="0.4" stdDeviation="0.2"/>
      </filter>
</defs>
  <path fill="#FF0066" d="M36.2,-66.5C42.8,-58.8,41.3,-40.9,46.6,-28.1C51.9,-15.3,64.1,-7.6,70.6,3.8C77.1,15.2,78,30.4,69,36.7C59.9,43,40.9,40.4,27.7,49.1C14.6,57.7,7.3,77.6,-3.8,84.1C-14.8,90.6,-29.6,83.8,-43.5,75.6C-57.3,67.3,-70.2,57.6,-76.9,44.8C-83.7,31.9,-84.5,16,-80.1,2.5C-75.7,-10.9,-66.2,-21.8,-56.5,-29.6C-46.8,-37.4,-36.9,-42.2,-27.5,-48.2C-18,-54.3,-9,-61.7,2.9,-66.7C14.8,-71.7,29.6,-74.2,36.2,-66.5Z" transform="translate(100 100)" >
  <animate dur="20s" repeatCount="indefinite" attributeName="d" values="M36.2,-66.5C42.8,-58.8,41.3,-40.9,46.6,-28.1C51.9,-15.3,64.1,-7.6,70.6,3.8C77.1,15.2,78,30.4,69,36.7C59.9,43,40.9,40.4,27.7,49.1C14.6,57.7,7.3,77.6,-3.8,84.1C-14.8,90.6,-29.6,83.8,-43.5,75.6C-57.3,67.3,-70.2,57.6,-76.9,44.8C-83.7,31.9,-84.5,16,-80.1,2.5C-75.7,-10.9,-66.2,-21.8,-56.5,-29.6C-46.8,-37.4,-36.9,-42.2,-27.5,-48.2C-18,-54.3,-9,-61.7,2.9,-66.7C14.8,-71.7,29.6,-74.2,36.2,-66.5Z;

  M27.3,-51.1C36.3,-42,45.3,-36.7,50.1,-28.8C54.8,-20.9,55.3,-10.5,55.2,-0.1C55.1,10.3,54.4,20.7,50.5,29.9C46.5,39.2,39.3,47.4,30.3,54.4C21.4,61.4,10.7,67.2,-2.5,71.5C-15.6,75.8,-31.3,78.5,-44.2,73.8C-57.2,69.1,-67.5,57,-73.7,43.5C-79.9,29.9,-82.1,15,-79.5,1.5C-77,-12,-69.8,-24.1,-63.4,-37.4C-57.1,-50.7,-51.6,-65.2,-41.1,-73.5C-30.7,-81.7,-15.4,-83.7,-3.1,-78.3C9.1,-72.8,18.2,-60.1,27.3,-51.1Z;

  M20.6,-43.3C27.9,-31.4,35.9,-28.4,42.7,-22.6C49.6,-16.9,55.3,-8.4,58.6,1.9C61.9,12.3,62.9,24.6,59.8,36.8C56.7,49.1,49.6,61.3,38.9,65.5C28.3,69.7,14.1,66,1.2,64C-11.8,62,-23.7,61.8,-31.4,55.8C-39.1,49.9,-42.7,38.4,-46.6,28.1C-50.5,17.8,-54.6,8.9,-54,0.3C-53.4,-8.2,-48,-16.4,-46.1,-30C-44.2,-43.6,-45.6,-62.6,-38.5,-74.6C-31.4,-86.5,-15.7,-91.5,-4.5,-83.7C6.6,-75.8,13.3,-55.1,20.6,-43.3Z;
  
  M36.2,-66.5C42.8,-58.8,41.3,-40.9,46.6,-28.1C51.9,-15.3,64.1,-7.6,70.6,3.8C77.1,15.2,78,30.4,69,36.7C59.9,43,40.9,40.4,27.7,49.1C14.6,57.7,7.3,77.6,-3.8,84.1C-14.8,90.6,-29.6,83.8,-43.5,75.6C-57.3,67.3,-70.2,57.6,-76.9,44.8C-83.7,31.9,-84.5,16,-80.1,2.5C-75.7,-10.9,-66.2,-21.8,-56.5,-29.6C-46.8,-37.4,-36.9,-42.2,-27.5,-48.2C-18,-54.3,-9,-61.7,2.9,-66.7C14.8,-71.7,29.6,-74.2,36.2,-66.5Z;" fill="freeze"
      calcMode="spline"
      keySplines="0.4 0 0.2 1; 0.4 0 0.2 1; 0.4 0 0.2 1"/>

      <animateTransform attributeType="xml" attributeName="transform" type="rotate" from="360 0 0" to="0 0 0" dur="180s" additive="sum" repeatCount="indefinite" />

      
  </path>
</svg>