<svg viewBox="0 0 200 200" xmlns="http://www.w3.org/2000/svg">
  <path fill="#FF0066" d="M33.8,-50.4C47.5,-50.6,64.8,-49,76.2,-40.3C87.7,-31.6,93.3,-15.8,88.1,-3C82.8,9.7,66.6,19.4,54.4,26.8C42.1,34.1,33.8,39.1,25.4,46.4C17,53.6,8.5,63.1,-3.4,69.1C-15.3,75,-30.6,77.3,-40.1,70.6C-49.5,64,-53.1,48.4,-56.2,35.1C-59.3,21.8,-62,10.9,-61.4,0.3C-60.8,-10.2,-57,-20.5,-50.6,-28C-44.2,-35.6,-35.2,-40.5,-26.3,-43C-17.4,-45.6,-8.7,-46,0.7,-47.1C10,-48.3,20.1,-50.2,33.8,-50.4Z" transform="translate(100 100)">
  <animate dur="10s" repeatCount="indefinite" attributeName="d" values="M33.8,-50.4C47.5,-50.6,64.8,-49,76.2,-40.3C87.7,-31.6,93.3,-15.8,88.1,-3C82.8,9.7,66.6,19.4,54.4,26.8C42.1,34.1,33.8,39.1,25.4,46.4C17,53.6,8.5,63.1,-3.4,69.1C-15.3,75,-30.6,77.3,-40.1,70.6C-49.5,64,-53.1,48.4,-56.2,35.1C-59.3,21.8,-62,10.9,-61.4,0.3C-60.8,-10.2,-57,-20.5,-50.6,-28C-44.2,-35.6,-35.2,-40.5,-26.3,-43C-17.4,-45.6,-8.7,-46,0.7,-47.1C10,-48.3,20.1,-50.2,33.8,-50.4Z;

  M36.2,-66.5C42.8,-58.8,41.3,-40.9,46.6,-28.1C51.9,-15.3,64.1,-7.6,70.6,3.8C77.1,15.2,78,30.4,69,36.7C59.9,43,40.9,40.4,27.7,49.1C14.6,57.7,7.3,77.6,-3.8,84.1C-14.8,90.6,-29.6,83.8,-43.5,75.6C-57.3,67.3,-70.2,57.6,-76.9,44.8C-83.7,31.9,-84.5,16,-80.1,2.5C-75.7,-10.9,-66.2,-21.8,-56.5,-29.6C-46.8,-37.4,-36.9,-42.2,-27.5,-48.2C-18,-54.3,-9,-61.7,2.9,-66.7C14.8,-71.7,29.6,-74.2,36.2,-66.5Z;

  M27,-45C39,-39.9,55.5,-40.7,59.1,-34.2C62.7,-27.7,53.6,-13.8,50.3,-1.9C46.9,10,49.4,20,46.2,27.2C42.9,34.3,33.9,38.7,25.2,43C16.6,47.3,8.3,51.6,-1,53.5C-10.4,55.3,-20.7,54.6,-29.7,50.4C-38.7,46.3,-46.2,38.7,-51.6,29.7C-57.1,20.7,-60.4,10.3,-64.9,-2.6C-69.4,-15.5,-75.1,-31.1,-69.9,-40.5C-64.8,-50,-48.7,-53.3,-35.3,-57.6C-21.8,-61.8,-10.9,-67,-1.7,-64.1C7.5,-61.1,15.1,-50.1,27,-45Z;
  
  M33.8,-50.4C47.5,-50.6,64.8,-49,76.2,-40.3C87.7,-31.6,93.3,-15.8,88.1,-3C82.8,9.7,66.6,19.4,54.4,26.8C42.1,34.1,33.8,39.1,25.4,46.4C17,53.6,8.5,63.1,-3.4,69.1C-15.3,75,-30.6,77.3,-40.1,70.6C-49.5,64,-53.1,48.4,-56.2,35.1C-59.3,21.8,-62,10.9,-61.4,0.3C-60.8,-10.2,-57,-20.5,-50.6,-28C-44.2,-35.6,-35.2,-40.5,-26.3,-43C-17.4,-45.6,-8.7,-46,0.7,-47.1C10,-48.3,20.1,-50.2,33.8,-50.4Z;" fill="freeze"
      calcMode="spline"
      keySplines="0.4 0 0.2 1; 0.4 0 0.2 1; 0.4 0 0.2 1"/>
      <animateTransform attributeType="xml" attributeName="transform" type="rotate" from="360 0 0" to="0 0 0" dur="25s" additive="sum" repeatCount="indefinite" />
  </path>
</svg>