<svg viewBox="0 0 200 200" xmlns="http://www.w3.org/2000/svg">
  <path fill="#FF0066" d="M28,-48.1C39,-42.2,52.4,-40.1,57.7,-32.7C63,-25.3,60.1,-12.7,56,-2.4C51.9,7.9,46.5,15.8,42.9,26.2C39.4,36.5,37.6,49.2,30.7,56.8C23.8,64.4,11.9,66.8,-2.2,70.6C-16.3,74.3,-32.6,79.5,-39.4,71.9C-46.2,64.3,-43.5,43.9,-48.8,29.8C-54.1,15.7,-67.4,7.9,-67.1,0.2C-66.9,-7.5,-53,-15.1,-44.8,-24.1C-36.5,-33.1,-33.9,-43.6,-27.4,-52.1C-20.8,-60.6,-10.4,-67.2,-0.9,-65.6C8.5,-63.9,17,-54.1,28,-48.1Z" transform="translate(100 100)">

  <animate dur="20s" repeatCount="indefinite" attributeName="d" values="M28,-48.1C39,-42.2,52.4,-40.1,57.7,-32.7C63,-25.3,60.1,-12.7,56,-2.4C51.9,7.9,46.5,15.8,42.9,26.2C39.4,36.5,37.6,49.2,30.7,56.8C23.8,64.4,11.9,66.8,-2.2,70.6C-16.3,74.3,-32.6,79.5,-39.4,71.9C-46.2,64.3,-43.5,43.9,-48.8,29.8C-54.1,15.7,-67.4,7.9,-67.1,0.2C-66.9,-7.5,-53,-15.1,-44.8,-24.1C-36.5,-33.1,-33.9,-43.6,-27.4,-52.1C-20.8,-60.6,-10.4,-67.2,-0.9,-65.6C8.5,-63.9,17,-54.1,28,-48.1Z;

  M19.4,-39.4C25.9,-30,32.2,-26.1,38.1,-20.5C44,-14.8,49.6,-7.4,48.7,-0.5C47.9,6.4,40.6,12.8,35.9,20.7C31.3,28.5,29.2,37.7,23.6,49.6C18,61.6,9,76.3,0.8,74.9C-7.4,73.6,-14.8,56,-21.9,45C-29.1,33.9,-35.9,29.3,-43.2,22.8C-50.6,16.4,-58.5,8.2,-62.6,-2.4C-66.7,-13,-67,-25.9,-64.2,-40.2C-61.4,-54.5,-55.4,-70.1,-44.2,-76.8C-33,-83.4,-16.5,-81.2,-5,-72.5C6.5,-63.9,13,-48.9,19.4,-39.4Z;

  M39.9,-62.7C51.3,-62.6,59.8,-51,62.1,-38.6C64.3,-26.3,60.3,-13.1,55.4,-2.8C50.5,7.5,44.7,15,41.8,26.2C38.9,37.4,38.8,52.3,32.3,59.2C25.9,66.2,12.9,65.2,3.1,59.9C-6.7,54.5,-13.5,44.8,-24.4,40.3C-35.2,35.9,-50.2,36.8,-55.6,30.9C-60.9,25.1,-56.6,12.6,-54.3,1.3C-52,-9.9,-51.6,-19.7,-50.4,-32.7C-49.1,-45.6,-46.9,-61.5,-38.4,-63.3C-29.8,-65,-14.9,-52.4,-0.3,-51.9C14.3,-51.3,28.5,-62.7,39.9,-62.7Z;
  
  M28,-48.1C39,-42.2,52.4,-40.1,57.7,-32.7C63,-25.3,60.1,-12.7,56,-2.4C51.9,7.9,46.5,15.8,42.9,26.2C39.4,36.5,37.6,49.2,30.7,56.8C23.8,64.4,11.9,66.8,-2.2,70.6C-16.3,74.3,-32.6,79.5,-39.4,71.9C-46.2,64.3,-43.5,43.9,-48.8,29.8C-54.1,15.7,-67.4,7.9,-67.1,0.2C-66.9,-7.5,-53,-15.1,-44.8,-24.1C-36.5,-33.1,-33.9,-43.6,-27.4,-52.1C-20.8,-60.6,-10.4,-67.2,-0.9,-65.6C8.5,-63.9,17,-54.1,28,-48.1Z;" fill="freeze"
      calcMode="spline"
      keySplines="0.4 0 0.2 1; 0.4 0 0.2 1; 0.4 0 0.2 1"/>
      <animateTransform attributeType="xml" attributeName="transform" type="rotate" from="360 0 0" to="0 0 0" dur="180s" additive="sum" repeatCount="indefinite" />
  </path>
</svg>