<svg viewBox="0 0 200 200" xmlns="http://www.w3.org/2000/svg">
  <path fill="#FF0066" d="M20.6,-43.3C27.9,-31.4,35.9,-28.4,42.7,-22.6C49.6,-16.9,55.3,-8.4,58.6,1.9C61.9,12.3,62.9,24.6,59.8,36.8C56.7,49.1,49.6,61.3,38.9,65.5C28.3,69.7,14.1,66,1.2,64C-11.8,62,-23.7,61.8,-31.4,55.8C-39.1,49.9,-42.7,38.4,-46.6,28.1C-50.5,17.8,-54.6,8.9,-54,0.3C-53.4,-8.2,-48,-16.4,-46.1,-30C-44.2,-43.6,-45.6,-62.6,-38.5,-74.6C-31.4,-86.5,-15.7,-91.5,-4.5,-83.7C6.6,-75.8,13.3,-55.1,20.6,-43.3Z" transform="translate(100 100)">
  
  <animate dur="10s" repeatCount="indefinite" attributeName="d" values="M20.6,-43.3C27.9,-31.4,35.9,-28.4,42.7,-22.6C49.6,-16.9,55.3,-8.4,58.6,1.9C61.9,12.3,62.9,24.6,59.8,36.8C56.7,49.1,49.6,61.3,38.9,65.5C28.3,69.7,14.1,66,1.2,64C-11.8,62,-23.7,61.8,-31.4,55.8C-39.1,49.9,-42.7,38.4,-46.6,28.1C-50.5,17.8,-54.6,8.9,-54,0.3C-53.4,-8.2,-48,-16.4,-46.1,-30C-44.2,-43.6,-45.6,-62.6,-38.5,-74.6C-31.4,-86.5,-15.7,-91.5,-4.5,-83.7C6.6,-75.8,13.3,-55.1,20.6,-43.3Z;

  M39.9,-62.7C51.3,-62.6,59.8,-51,62.1,-38.6C64.3,-26.3,60.3,-13.1,55.4,-2.8C50.5,7.5,44.7,15,41.8,26.2C38.9,37.4,38.8,52.3,32.3,59.2C25.9,66.2,12.9,65.2,3.1,59.9C-6.7,54.5,-13.5,44.8,-24.4,40.3C-35.2,35.9,-50.2,36.8,-55.6,30.9C-60.9,25.1,-56.6,12.6,-54.3,1.3C-52,-9.9,-51.6,-19.7,-50.4,-32.7C-49.1,-45.6,-46.9,-61.5,-38.4,-63.3C-29.8,-65,-14.9,-52.4,-0.3,-51.9C14.3,-51.3,28.5,-62.7,39.9,-62.7Z;

  M25.9,-46.2C32.9,-40.9,37.4,-32.5,39.5,-24.3C41.6,-16.1,41.3,-8.1,40.3,-0.6C39.3,6.9,37.6,13.8,34.1,19.6C30.6,25.4,25.3,30,19.3,38.6C13.3,47.2,6.7,59.7,-4.8,68C-16.3,76.4,-32.6,80.6,-41.2,73.5C-49.7,66.4,-50.4,47.9,-58.5,33.8C-66.5,19.7,-81.9,9.8,-79.9,1.1C-77.9,-7.5,-58.6,-15.1,-48.5,-25.8C-38.5,-36.5,-37.8,-50.4,-31.3,-55.9C-24.7,-61.5,-12.4,-58.8,-1.4,-56.3C9.5,-53.8,18.9,-51.5,25.9,-46.2Z;
  
  M20.6,-43.3C27.9,-31.4,35.9,-28.4,42.7,-22.6C49.6,-16.9,55.3,-8.4,58.6,1.9C61.9,12.3,62.9,24.6,59.8,36.8C56.7,49.1,49.6,61.3,38.9,65.5C28.3,69.7,14.1,66,1.2,64C-11.8,62,-23.7,61.8,-31.4,55.8C-39.1,49.9,-42.7,38.4,-46.6,28.1C-50.5,17.8,-54.6,8.9,-54,0.3C-53.4,-8.2,-48,-16.4,-46.1,-30C-44.2,-43.6,-45.6,-62.6,-38.5,-74.6C-31.4,-86.5,-15.7,-91.5,-4.5,-83.7C6.6,-75.8,13.3,-55.1,20.6,-43.3Z;" fill="freeze"
      calcMode="spline"
      keySplines="0.4 0 0.2 1; 0.4 0 0.2 1; 0.4 0 0.2 1"/>

      <animateTransform attributeType="xml" attributeName="transform" type="rotate" from="360 0 0" to="0 0 0" dur="25s" additive="sum" repeatCount="indefinite" />
  </path>
</svg>