<svg viewBox="0 0 200 200" xmlns="http://www.w3.org/2000/svg">
  <path fill="#FF0066" d="M27.3,-51.1C36.3,-42,45.3,-36.7,50.1,-28.8C54.8,-20.9,55.3,-10.5,55.2,-0.1C55.1,10.3,54.4,20.7,50.5,29.9C46.5,39.2,39.3,47.4,30.3,54.4C21.4,61.4,10.7,67.2,-2.5,71.5C-15.6,75.8,-31.3,78.5,-44.2,73.8C-57.2,69.1,-67.5,57,-73.7,43.5C-79.9,29.9,-82.1,15,-79.5,1.5C-77,-12,-69.8,-24.1,-63.4,-37.4C-57.1,-50.7,-51.6,-65.2,-41.1,-73.5C-30.7,-81.7,-15.4,-83.7,-3.1,-78.3C9.1,-72.8,18.2,-60.1,27.3,-51.1Z" transform="translate(100 100)">

  <animate dur="10s" repeatCount="indefinite" attributeName="d" values="M27.3,-51.1C36.3,-42,45.3,-36.7,50.1,-28.8C54.8,-20.9,55.3,-10.5,55.2,-0.1C55.1,10.3,54.4,20.7,50.5,29.9C46.5,39.2,39.3,47.4,30.3,54.4C21.4,61.4,10.7,67.2,-2.5,71.5C-15.6,75.8,-31.3,78.5,-44.2,73.8C-57.2,69.1,-67.5,57,-73.7,43.5C-79.9,29.9,-82.1,15,-79.5,1.5C-77,-12,-69.8,-24.1,-63.4,-37.4C-57.1,-50.7,-51.6,-65.2,-41.1,-73.5C-30.7,-81.7,-15.4,-83.7,-3.1,-78.3C9.1,-72.8,18.2,-60.1,27.3,-51.1Z;

  M36.2,-58.2C46.6,-56.6,54.7,-46.4,56.4,-35.3C58.1,-24.2,53.4,-12.1,55,0.9C56.6,13.9,64.5,27.9,59.6,33.4C54.7,38.9,36.9,35.9,24.8,43.6C12.7,51.2,6.4,69.4,-3.9,76.2C-14.2,83,-28.4,78.4,-36.5,68.5C-44.6,58.6,-46.6,43.3,-49.1,31C-51.5,18.7,-54.4,9.4,-59.5,-2.9C-64.6,-15.3,-71.9,-30.5,-69.1,-42.1C-66.2,-53.6,-53.1,-61.5,-39.9,-61.5C-26.7,-61.5,-13.3,-53.6,-0.3,-53.2C12.8,-52.7,25.7,-59.7,36.2,-58.2Z;

  M32.5,-63.2C38.1,-53.1,35.8,-36.2,39,-24.6C42.1,-12.9,50.8,-6.4,50.9,0.1C51,6.6,42.7,13.2,36.6,19.8C30.5,26.4,26.7,33,21,41.3C15.3,49.6,7.6,59.6,-1.7,62.6C-11.1,65.6,-22.2,61.6,-35.8,57.9C-49.3,54.1,-65.3,50.5,-75.1,40.9C-84.9,31.3,-88.4,15.7,-81,4.3C-73.6,-7.1,-55.2,-14.2,-44.9,-23C-34.7,-31.8,-32.6,-42.3,-26.5,-52.1C-20.3,-62,-10.2,-71.1,1.6,-73.9C13.5,-76.8,26.9,-73.4,32.5,-63.2Z;
  
  M27.3,-51.1C36.3,-42,45.3,-36.7,50.1,-28.8C54.8,-20.9,55.3,-10.5,55.2,-0.1C55.1,10.3,54.4,20.7,50.5,29.9C46.5,39.2,39.3,47.4,30.3,54.4C21.4,61.4,10.7,67.2,-2.5,71.5C-15.6,75.8,-31.3,78.5,-44.2,73.8C-57.2,69.1,-67.5,57,-73.7,43.5C-79.9,29.9,-82.1,15,-79.5,1.5C-77,-12,-69.8,-24.1,-63.4,-37.4C-57.1,-50.7,-51.6,-65.2,-41.1,-73.5C-30.7,-81.7,-15.4,-83.7,-3.1,-78.3C9.1,-72.8,18.2,-60.1,27.3,-51.1Z;" fill="freeze"
      calcMode="spline"
      keySplines="0.4 0 0.2 1; 0.4 0 0.2 1; 0.4 0 0.2 1"/>

      <animateTransform attributeType="xml" attributeName="transform" type="rotate" from="360 0 0" to="0 0 0" dur="50s" additive="sum" repeatCount="indefinite" />
  </path>
</svg>