<svg viewBox="0 0 200 200" xmlns="http://www.w3.org/2000/svg">
  <path fill="#FF0066" d="M27,-45C39,-39.9,55.5,-40.7,59.1,-34.2C62.7,-27.7,53.6,-13.8,50.3,-1.9C46.9,10,49.4,20,46.2,27.2C42.9,34.3,33.9,38.7,25.2,43C16.6,47.3,8.3,51.6,-1,53.5C-10.4,55.3,-20.7,54.6,-29.7,50.4C-38.7,46.3,-46.2,38.7,-51.6,29.7C-57.1,20.7,-60.4,10.3,-64.9,-2.6C-69.4,-15.5,-75.1,-31.1,-69.9,-40.5C-64.8,-50,-48.7,-53.3,-35.3,-57.6C-21.8,-61.8,-10.9,-67,-1.7,-64.1C7.5,-61.1,15.1,-50.1,27,-45Z" transform="translate(100 100)">
  <animate dur="20s" repeatCount="indefinite" attributeName="d" values="M27,-45C39,-39.9,55.5,-40.7,59.1,-34.2C62.7,-27.7,53.6,-13.8,50.3,-1.9C46.9,10,49.4,20,46.2,27.2C42.9,34.3,33.9,38.7,25.2,43C16.6,47.3,8.3,51.6,-1,53.5C-10.4,55.3,-20.7,54.6,-29.7,50.4C-38.7,46.3,-46.2,38.7,-51.6,29.7C-57.1,20.7,-60.4,10.3,-64.9,-2.6C-69.4,-15.5,-75.1,-31.1,-69.9,-40.5C-64.8,-50,-48.7,-53.3,-35.3,-57.6C-21.8,-61.8,-10.9,-67,-1.7,-64.1C7.5,-61.1,15.1,-50.1,27,-45Z;

  M27.2,-56.1C33.1,-43.8,34,-32,43.6,-22.7C53.1,-13.5,71.3,-6.7,74.4,1.8C77.5,10.3,65.5,20.6,57.2,32C48.9,43.5,44.3,56.1,35.4,59.5C26.5,62.9,13.2,57.1,3.5,51.1C-6.3,45.1,-12.6,38.8,-18.4,33.7C-24.3,28.5,-29.7,24.4,-38.2,19C-46.8,13.5,-58.4,6.8,-64.1,-3.3C-69.8,-13.3,-69.6,-26.7,-64,-37.2C-58.4,-47.7,-47.4,-55.4,-35.8,-64.4C-24.3,-73.4,-12.1,-83.7,-0.7,-82.5C10.7,-81.2,21.4,-68.4,27.2,-56.1Z;

  M37.5,-61.3C50.7,-57.4,65,-51.6,72.9,-41C80.9,-30.5,82.5,-15.3,75.8,-3.9C69,7.4,53.8,14.8,47.9,28.9C42,43.1,45.4,63.9,39,74.8C32.6,85.8,16.3,87,3.6,80.8C-9.1,74.5,-18.2,60.8,-29.8,52.9C-41.4,44.9,-55.6,42.6,-66.7,34.7C-77.8,26.8,-85.9,13.4,-82.4,2C-79,-9.5,-64,-18.9,-55.9,-31.9C-47.7,-44.9,-46.4,-61.4,-38.2,-68.3C-30,-75.2,-15,-72.4,-1.4,-69.9C12.2,-67.4,24.3,-65.3,37.5,-61.3Z;
  
 M27,-45C39,-39.9,55.5,-40.7,59.1,-34.2C62.7,-27.7,53.6,-13.8,50.3,-1.9C46.9,10,49.4,20,46.2,27.2C42.9,34.3,33.9,38.7,25.2,43C16.6,47.3,8.3,51.6,-1,53.5C-10.4,55.3,-20.7,54.6,-29.7,50.4C-38.7,46.3,-46.2,38.7,-51.6,29.7C-57.1,20.7,-60.4,10.3,-64.9,-2.6C-69.4,-15.5,-75.1,-31.1,-69.9,-40.5C-64.8,-50,-48.7,-53.3,-35.3,-57.6C-21.8,-61.8,-10.9,-67,-1.7,-64.1C7.5,-61.1,15.1,-50.1,27,-45Z;" fill="freeze"
      calcMode="spline"
      keySplines="0.4 0 0.2 1; 0.4 0 0.2 1; 0.4 0 0.2 1"/>
      <animateTransform attributeType="xml" attributeName="transform" type="rotate" from="360 0 0" to="0 0 0" dur="180s" additive="sum" repeatCount="indefinite" />
  </path>
</svg>