<svg viewBox="0 0 200 200" xmlns="http://www.w3.org/2000/svg">
  <path fill="#FF0066" d="M37.5,-61.3C50.7,-57.4,65,-51.6,72.9,-41C80.9,-30.5,82.5,-15.3,75.8,-3.9C69,7.4,53.8,14.8,47.9,28.9C42,43.1,45.4,63.9,39,74.8C32.6,85.8,16.3,87,3.6,80.8C-9.1,74.5,-18.2,60.8,-29.8,52.9C-41.4,44.9,-55.6,42.6,-66.7,34.7C-77.8,26.8,-85.9,13.4,-82.4,2C-79,-9.5,-64,-18.9,-55.9,-31.9C-47.7,-44.9,-46.4,-61.4,-38.2,-68.3C-30,-75.2,-15,-72.4,-1.4,-69.9C12.2,-67.4,24.3,-65.3,37.5,-61.3Z" transform="translate(100 100)">
  <animate dur="10s" repeatCount="indefinite" attributeName="d" values="M37.5,-61.3C50.7,-57.4,65,-51.6,72.9,-41C80.9,-30.5,82.5,-15.3,75.8,-3.9C69,7.4,53.8,14.8,47.9,28.9C42,43.1,45.4,63.9,39,74.8C32.6,85.8,16.3,87,3.6,80.8C-9.1,74.5,-18.2,60.8,-29.8,52.9C-41.4,44.9,-55.6,42.6,-66.7,34.7C-77.8,26.8,-85.9,13.4,-82.4,2C-79,-9.5,-64,-18.9,-55.9,-31.9C-47.7,-44.9,-46.4,-61.4,-38.2,-68.3C-30,-75.2,-15,-72.4,-1.4,-69.9C12.2,-67.4,24.3,-65.3,37.5,-61.3Z;

  M30,-51.6C36.2,-48.4,36.5,-34.9,46.8,-24.5C57,-14.2,77.2,-7.1,81.7,2.6C86.1,12.2,74.8,24.5,66.7,38.5C58.5,52.5,53.5,68.3,42.9,76.7C32.4,85.1,16.2,86.1,4.3,78.7C-7.7,71.3,-15.3,55.6,-21.1,44.4C-26.9,33.2,-30.8,26.6,-42.8,20C-54.9,13.3,-75.1,6.7,-79.1,-2.3C-83,-11.2,-70.6,-22.4,-60.7,-32.9C-50.9,-43.4,-43.7,-53.2,-34,-54.3C-24.3,-55.4,-12.1,-47.8,-0.1,-47.6C11.9,-47.5,23.9,-54.7,30,-51.6Z;

  M30.8,-55.6C40.9,-47.6,50.6,-41.2,54.7,-32.2C58.9,-23.2,57.5,-11.6,55.8,-1C54.1,9.7,52.2,19.3,46.7,26.1C41.3,32.9,32.4,36.7,24,41.1C15.6,45.6,7.8,50.5,-4.1,57.5C-15.9,64.5,-31.8,73.6,-42.4,70.5C-52.9,67.3,-58.1,51.9,-56.6,38.1C-55.2,24.3,-47.2,12.2,-46.5,0.4C-45.8,-11.4,-52.5,-22.7,-49.8,-29.4C-47.1,-36,-35,-37.9,-25.2,-46C-15.3,-54.1,-7.7,-68.3,1.4,-70.7C10.4,-73,20.8,-63.5,30.8,-55.6Z;
  
  M37.5,-61.3C50.7,-57.4,65,-51.6,72.9,-41C80.9,-30.5,82.5,-15.3,75.8,-3.9C69,7.4,53.8,14.8,47.9,28.9C42,43.1,45.4,63.9,39,74.8C32.6,85.8,16.3,87,3.6,80.8C-9.1,74.5,-18.2,60.8,-29.8,52.9C-41.4,44.9,-55.6,42.6,-66.7,34.7C-77.8,26.8,-85.9,13.4,-82.4,2C-79,-9.5,-64,-18.9,-55.9,-31.9C-47.7,-44.9,-46.4,-61.4,-38.2,-68.3C-30,-75.2,-15,-72.4,-1.4,-69.9C12.2,-67.4,24.3,-65.3,37.5,-61.3Z;" fill="freeze"
      calcMode="spline"
      keySplines="0.4 0 0.2 1; 0.4 0 0.2 1; 0.4 0 0.2 1"/>
      <animateTransform attributeType="xml" attributeName="transform" type="rotate" from="360 0 0" to="0 0 0" dur="25s" additive="sum" repeatCount="indefinite" />
  </path>
</svg>