<svg viewBox="0 0 200 200" xmlns="http://www.w3.org/2000/svg">
  <path fill="#FF0066" d="M21.9,-39.7C29.3,-33.7,36.9,-29.7,40.9,-23.4C44.9,-17.1,45.4,-8.5,48.1,1.5C50.8,11.6,55.5,23.2,53,32.1C50.5,41,40.6,47.1,30.5,57.3C20.5,67.6,10.2,82,-0.6,82.9C-11.3,83.9,-22.7,71.4,-32.4,60.9C-42,50.5,-50,42,-53.9,32.1C-57.8,22.3,-57.5,11.2,-57.2,0.2C-56.8,-10.7,-56.3,-21.4,-53.1,-32.6C-50,-43.7,-44.2,-55.2,-34.9,-60.1C-25.7,-65,-12.8,-63.4,-2.8,-58.6C7.3,-53.8,14.5,-45.8,21.9,-39.7Z" transform="translate(100 100)"> 
  <animate dur="10s" repeatCount="indefinite" attributeName="d" values="M21.9,-39.7C29.3,-33.7,36.9,-29.7,40.9,-23.4C44.9,-17.1,45.4,-8.5,48.1,1.5C50.8,11.6,55.5,23.2,53,32.1C50.5,41,40.6,47.1,30.5,57.3C20.5,67.6,10.2,82,-0.6,82.9C-11.3,83.9,-22.7,71.4,-32.4,60.9C-42,50.5,-50,42,-53.9,32.1C-57.8,22.3,-57.5,11.2,-57.2,0.2C-56.8,-10.7,-56.3,-21.4,-53.1,-32.6C-50,-43.7,-44.2,-55.2,-34.9,-60.1C-25.7,-65,-12.8,-63.4,-2.8,-58.6C7.3,-53.8,14.5,-45.8,21.9,-39.7Z;

  M29.1,-42.7C42.9,-42.5,62.7,-45.1,73.7,-38.4C84.7,-31.8,86.9,-15.9,87,0C87,15.9,84.9,31.9,75.2,40.8C65.5,49.7,48.1,51.5,34.3,51.9C20.5,52.4,10.3,51.4,-1.2,53.5C-12.6,55.5,-25.3,60.6,-32.1,56.1C-38.9,51.6,-39.8,37.6,-50,26.6C-60.1,15.7,-79.4,7.8,-85.5,-3.5C-91.6,-14.9,-84.5,-29.8,-73,-38.4C-61.5,-47.1,-45.8,-49.5,-32.9,-50.2C-20,-51,-10,-50,-1.2,-48C7.7,-46,15.4,-43,29.1,-42.7Z;

  M25.9,-46C38.1,-37.9,55.4,-40,65.5,-34C75.6,-28,78.4,-14,79.2,0.5C80.1,14.9,78.8,29.9,71.4,40.4C63.9,50.9,50.2,57,37.2,57.4C24.3,57.9,12.1,52.7,2.2,49C-7.8,45.2,-15.6,42.9,-27.1,41.6C-38.6,40.3,-53.7,40,-60.9,33.3C-68.1,26.5,-67.2,13.3,-62.5,2.7C-57.9,-7.9,-49.4,-15.7,-45.8,-28.7C-42.2,-41.7,-43.6,-59.7,-36.8,-70.9C-29.9,-82.1,-15,-86.4,-4,-79.4C6.9,-72.4,13.8,-54.1,25.9,-46Z;
  
  M21.9,-39.7C29.3,-33.7,36.9,-29.7,40.9,-23.4C44.9,-17.1,45.4,-8.5,48.1,1.5C50.8,11.6,55.5,23.2,53,32.1C50.5,41,40.6,47.1,30.5,57.3C20.5,67.6,10.2,82,-0.6,82.9C-11.3,83.9,-22.7,71.4,-32.4,60.9C-42,50.5,-50,42,-53.9,32.1C-57.8,22.3,-57.5,11.2,-57.2,0.2C-56.8,-10.7,-56.3,-21.4,-53.1,-32.6C-50,-43.7,-44.2,-55.2,-34.9,-60.1C-25.7,-65,-12.8,-63.4,-2.8,-58.6C7.3,-53.8,14.5,-45.8,21.9,-39.7Z;" fill="freeze"
      calcMode="spline"
      keySplines="0.4 0 0.2 1; 0.4 0 0.2 1; 0.4 0 0.2 1"/>
      <animateTransform attributeType="xml" attributeName="transform" type="rotate" from="360 0 0" to="0 0 0" dur="50s" additive="sum" repeatCount="indefinite" />
  </path>
</svg>