<svg id="visual" viewBox="0 0 900 600" width="900" height="600" xmlns="http://www.w3.org/2000/svg" xmlns:xlink="http://www.w3.org/1999/xlink" version="1.1"><path d="M0 79L18.8 80C37.7 81 75.3 83 112.8 80C150.3 77 187.7 69 225.2 73C262.7 77 300.3 93 337.8 91C375.3 89 412.7 69 450.2 60C487.7 51 525.3 53 562.8 54C600.3 55 637.7 55 675.2 59C712.7 63 750.3 71 787.8 70C825.3 69 862.7 59 881.3 54L900 49L900 0L881.3 0C862.7 0 825.3 0 787.8 0C750.3 0 712.7 0 675.2 0C637.7 0 600.3 0 562.8 0C525.3 0 487.7 0 450.2 0C412.7 0 375.3 0 337.8 0C300.3 0 262.7 0 225.2 0C187.7 0 150.3 0 112.8 0C75.3 0 37.7 0 18.8 0L0 0Z" fill="#177187"></path><path d="M0 265L18.8 256C37.7 247 75.3 229 112.8 222C150.3 215 187.7 219 225.2 231C262.7 243 300.3 263 337.8 266C375.3 269 412.7 255 450.2 250C487.7 245 525.3 249 562.8 248C600.3 247 637.7 241 675.2 232C712.7 223 750.3 211 787.8 212C825.3 213 862.7 227 881.3 234L900 241L900 47L881.3 52C862.7 57 825.3 67 787.8 68C750.3 69 712.7 61 675.2 57C637.7 53 600.3 53 562.8 52C525.3 51 487.7 49 450.2 58C412.7 67 375.3 87 337.8 89C300.3 91 262.7 75 225.2 71C187.7 67 150.3 75 112.8 78C75.3 81 37.7 79 18.8 78L0 77Z" fill="#1b85a0"></path><path d="M0 415L18.8 423C37.7 431 75.3 447 112.8 446C150.3 445 187.7 427 225.2 416C262.7 405 300.3 401 337.8 400C375.3 399 412.7 401 450.2 410C487.7 419 525.3 435 562.8 441C600.3 447 637.7 443 675.2 440C712.7 437 750.3 435 787.8 434C825.3 433 862.7 433 881.3 433L900 433L900 239L881.3 232C862.7 225 825.3 211 787.8 210C750.3 209 712.7 221 675.2 230C637.7 239 600.3 245 562.8 246C525.3 247 487.7 243 450.2 248C412.7 253 375.3 267 337.8 264C300.3 261 262.7 241 225.2 229C187.7 217 150.3 213 112.8 220C75.3 227 37.7 245 18.8 254L0 263Z" fill="#209ab9"></path><path d="M0 505L18.8 509C37.7 513 75.3 521 112.8 517C150.3 513 187.7 497 225.2 485C262.7 473 300.3 465 337.8 467C375.3 469 412.7 481 450.2 493C487.7 505 525.3 517 562.8 520C600.3 523 637.7 517 675.2 508C712.7 499 750.3 487 787.8 490C825.3 493 862.7 511 881.3 520L900 529L900 431L881.3 431C862.7 431 825.3 431 787.8 432C750.3 433 712.7 435 675.2 438C637.7 441 600.3 445 562.8 439C525.3 433 487.7 417 450.2 408C412.7 399 375.3 397 337.8 398C300.3 399 262.7 403 225.2 414C187.7 425 150.3 443 112.8 444C75.3 445 37.7 429 18.8 421L0 413Z" fill="#4aa7c2"></path><path d="M0 601L18.8 601C37.7 601 75.3 601 112.8 601C150.3 601 187.7 601 225.2 601C262.7 601 300.3 601 337.8 601C375.3 601 412.7 601 450.2 601C487.7 601 525.3 601 562.8 601C600.3 601 637.7 601 675.2 601C712.7 601 750.3 601 787.8 601C825.3 601 862.7 601 881.3 601L900 601L900 527L881.3 518C862.7 509 825.3 491 787.8 488C750.3 485 712.7 497 675.2 506C637.7 515 600.3 521 562.8 518C525.3 515 487.7 503 450.2 491C412.7 479 375.3 467 337.8 465C300.3 463 262.7 471 225.2 483C187.7 495 150.3 511 112.8 515C75.3 519 37.7 511 18.8 507L0 503Z" fill="#67b5cc"></path></svg>