<?xml version="1.0" encoding="UTF-8"?>
<svg version="1.1" viewBox="0 0 900 600" xml:space="preserve" xmlns="http://www.w3.org/2000/svg" style="height:100%;">
<style type="text/css">

	.st0{fill:#67B5CC;}
	.st1{fill:#4AA7C2;}
	.st2{fill:#209AB9;}
	.st3{fill:#1B85A0;}
	.st4{fill:#177187;}

  </style>
<path class="st0 wave" d="m881.3 0h-93.5s-75.1 0-112.6 0-74.9 0-112.4 0-75.1 0-112.6 0-74.9 0-112.4 0-75.1 0-112.6 0-74.9 0-112.4 0-75.1 0-94 0h-18.8v600h900v-600h-18.7z"/>
<path class="st1 wave" d="m792 75.7c36.2 69.3-99.1-8.5-136.6-12.4s-93.7 33.6-125.6 23.2c-35.6-11.5-42.1-37.3-79.6-28.5s-74.9 28.4-112.4 30.3-75.1-13.7-112.6-17.6-74.9 3.9-112.4 6.9-75.1 1-94 0l-18.8-1v512.8h900v-407.2-105.4s-118.2-20.6-108-1.1z"/>
<path class="st2 wave" d="m828.4 288.4c-111.8 10.2-150-53.6-187.5-44.8s-58.9 18.6-96.4 19.5c-37.5 1-56.8-20.7-94.3-15.9-37.5 4.9-74.9 18.5-112.4 15.6s-75.1-22.4-112.6-34.2c-37.5-11.7-74.9-15.6-112.4-8.8s-75.1 24.4-94 33.2l-18.8 8.8v329.8h900v-203.8-125.8c-0.1-0.1-49.1 24.4-71.6 26.4z"/>
<path class="st3 wave" d="m841.3 388.5c-18.6 0-16.5 39.4-54 40.4s-104-37.2-141.5-34.2-45.9 47.2-83.4 41.2-75.1-22-112.5-31-74.9-11-112.3-10-75.1 5-112.5 16-74.9 29-112.3 30-75.1-15-94-23l-18.8-8v188h899.5v-72l0.6-67.1v-48.9l-58.8-21.4z"/>
<path class="st4 wave" d="m0 600h18.8 94s74.9 0 112.4 0 75.1 0 112.6 0 74.9 0 112.4 0 75.1 0 112.6 0 74.9 0 112.4 0 75.1 0 112.6 0 74.9 0 93.5 0h18.7v-97.1l-25.5-10.1c-18.6-8.9-39.1-16.6-76.6-19.6s-85.2 23.6-122.7 32.5-74.9 14.9-112.4 11.9-75.1-14.9-112.6-26.8-74.9-23.8-112.4-25.8-75.1 6-112.6 17.9-74.9 27.8-112.4 31.8-75.1-4-94-7.9l-18.8-4v97.2z"/>
</svg>
