<svg xmlns="http://www.w3.org/2000/svg" xmlns:xlink="http://www.w3.org/1999/xlink" viewBox="0 0 637.28 814.98"><defs><style>.cls-1{opacity:0.75;filter:url(#AI_GaussianBlur_7);}.cls-2{fill:#13131a;}</style><filter id="AI_GaussianBlur_7" name="AI_GaussianBlur_7"><feGaussianBlur stdDeviation="10"/></filter></defs><g id="Layer_2" data-name="Layer 2"><g id="Shadow" class="cls-1"><path class="cls-2" d="M104.28,728.69c-6.68,24,7.48,43.33,31.46,42.91l249.62-4.39c24-.42,49.07-20.42,55.75-44.44L585,181.54c6.68-24-7.48-43.33-31.47-42.91L303.88,143c-1.31,0-2.63.11-3.94.25L478,139.54c21.78-.4,34.64,17.81,28.58,40.46L389.9,642.16c-6.06,22.65-28.84,41.51-50.62,41.9l-182.66,3.82c-21.78.4-34.64-17.81-28.58-40.46"/></g><path id="Front" class="cls-2" d="M358.38,719.09l-246.6,4.32c-23.69.42-37.68-18.59-31.08-42.23l155.2-556.4C242.5,101.14,267.28,81.46,291,81l246.6-4.32c23.69-.41,37.68,18.59,31.08,42.23l-155.2,556.4C406.85,699,382.07,718.68,358.38,719.09Z"/></g></svg>