<svg xmlns="http://www.w3.org/2000/svg" viewBox="0 0 637.28 814.98"><defs><style>.cls-1{fill:#424248;}</style></defs><g id="Layer_2" data-name="Layer 2"><path class="cls-1" d="M206.05,97.83l332.78-6,2-7.53c5.22-20-4.9-41.25-25.56-40.87L253.69,47.94c-14,.25-40,22.89-43.57,36.42Z"/><polygon class="cls-1" points="137.03 345.14 469.61 339.73 534.09 108.78 201.8 114.36 137.03 345.14"/><polygon class="cls-1" points="285.11 409.29 450.94 406.5 465.04 355.79 299.44 358.27 285.11 409.29"/><polygon class="cls-1" points="118.47 414.12 276.84 410.11 291.26 358.59 132.24 361.25 118.47 414.12"/><polygon class="cls-1" points="116.42 458.17 249.55 455.43 259.74 422.24 126.54 425.25 116.42 458.17"/><polygon class="cls-1" points="89.03 531.04 353.22 527.49 359.5 505.92 95.3 509.73 89.03 531.04"/><polygon class="cls-1" points="81.12 559.1 405.44 553.68 411.65 533.21 87.35 537.38 81.12 559.1"/><polygon class="cls-1" points="74.07 584.76 259.2 581.48 264.44 563.34 78.82 565.73 74.07 584.76"/><polygon class="cls-1" points="266.12 581.85 307.65 581.38 313.09 562.9 271.47 563.34 266.12 581.85"/><polygon class="cls-1" points="312.07 581.85 353.6 581.38 359.04 562.9 317.42 563.34 312.07 581.85"/><polygon class="cls-1" points="283.42 609.42 384.82 609.77 390.97 588.99 288.02 589.58 283.42 609.42"/><polygon class="cls-1" points="175.66 610.83 277.8 609.42 282.4 589.58 181.05 590.62 175.66 610.83"/><polygon class="cls-1" points="66.77 612.76 168.43 611.05 173.56 590.62 72.93 591.99 66.77 612.76"/><polygon class="cls-1" points="50.65 665.62 152.31 663.91 157.44 643.48 56.81 644.85 50.65 665.62"/><polygon class="cls-1" points="327.84 633.42 376.2 632.77 381.4 614.48 333.23 614.48 327.84 633.42"/><polygon class="cls-1" points="58.61 638.77 323.29 633.38 328.02 614.48 64.67 617.46 58.61 638.77"/></g></svg>