<svg xmlns="http://www.w3.org/2000/svg" viewBox="0 0 222.61 215.04"><defs><style>.cls-1{fill:#06462b;}.cls-2{fill:#0b8651;}.cls-3{fill:#82e62a;}.cls-4{fill:#17db32;}</style></defs><g class="Layer_2" data-name="Layer 2"><g class="design"><g class="base"><path class="cls-1" d="M218,143.87,87.76,209.7A9.45,9.45,0,0,1,75.47,206L2.73,78.5a8.44,8.44,0,0,1-.64-7.09L.5,75.79a8.47,8.47,0,0,0,.64,7.1L73.87,210.35a9.46,9.46,0,0,0,12.3,3.73l130.22-65.83a8.31,8.31,0,0,0,2.55-2,7.9,7.9,0,0,0,.91-1.26,6.42,6.42,0,0,0,.37-.68c.11-.23.2-.47.29-.71l1.59-4.39A8.33,8.33,0,0,1,218,143.87Z"/><path class="cls-2" d="M221.47,132.16,148.74,4.7A9.46,9.46,0,0,0,136.44,1L6.22,66.79A8.37,8.37,0,0,0,2.73,78.5L75.47,206a9.45,9.45,0,0,0,12.29,3.74L218,143.87A8.37,8.37,0,0,0,221.47,132.16Z"/></g><g class="content"><g class="group" data-name="group group-top"><polygon class="cls-3" points="138.28 26.99 144.76 38.34 81.13 70.5 74.65 59.15 138.28 26.99"/><polygon class="cls-3" points="148.34 44.61 154.81 55.95 91.18 88.12 84.71 76.77 148.34 44.61"/><path class="cls-4" d="M58.25,59.67a6.08,6.08,0,0,1,7.9,2.39L83.91,93.19a5.37,5.37,0,0,1-2.24,7.51l-31.8,16.08a6.08,6.08,0,0,1-7.89-2.4L24.22,83.26a5.37,5.37,0,0,1,2.24-7.52Z"/></g><path class="cls-4" d="M158.9,73.49a5.49,5.49,0,0,1,7.16,2.17l18.28,32a4.87,4.87,0,0,1-2,6.82L78.06,167.23A5.52,5.52,0,0,1,70.89,165L52.61,133a4.88,4.88,0,0,1,2-6.82Z"/><polygon class="cls-3" points="192.14 121.37 198.62 132.72 85.17 190.07 78.69 178.72 192.14 121.37"/></g></g></g></svg>