<svg xmlns="http://www.w3.org/2000/svg" viewBox="0 0 222.61 215.04"><defs><style>.cls-1{fill:#82e62a;}.cls-2{fill:#17db32;}.cls-3{fill:#0b8651;}.cls-4{fill:#06462b;}</style></defs><g id="Layer_2" data-name="Layer 2"><g id="Design"><g id="content"><path class="cls-2" d="M58.74,58.9a6.06,6.06,0,0,1,7.89,2.4L84.4,92.42a5.38,5.38,0,0,1-2.24,7.52L50.36,116a6.06,6.06,0,0,1-7.89-2.4L24.71,82.49A5.38,5.38,0,0,1,26.94,75Z"/><polygon class="cls-1" points="138.77 26.22 145.25 37.57 81.62 69.73 75.14 58.39 138.77 26.22"/><polygon class="cls-1" points="148.82 43.84 155.3 55.19 91.67 87.35 85.19 76 148.82 43.84"/><path class="cls-2" d="M159.39,72.72a5.5,5.5,0,0,1,7.16,2.18l18.28,32a4.88,4.88,0,0,1-2,6.83L78.54,166.46a5.5,5.5,0,0,1-7.16-2.18l-18.28-32a4.88,4.88,0,0,1,2-6.82Z"/><polygon class="cls-1" points="192.63 120.61 199.1 131.95 85.66 189.3 79.18 177.95 192.63 120.61"/></g><g id="base"><path class="cls-3" d="M136.44,1a9.46,9.46,0,0,1,12.3,3.74l72.73,127.46A8.37,8.37,0,0,1,218,143.87L87.76,209.7A9.45,9.45,0,0,1,75.47,206L2.73,78.5A8.37,8.37,0,0,1,6.22,66.79Zm48.39,106-18.28-32a5.5,5.5,0,0,0-7.16-2.18L55.13,125.42a4.88,4.88,0,0,0-2,6.82l18.28,32a5.5,5.5,0,0,0,7.16,2.18l104.26-52.7a4.88,4.88,0,0,0,2-6.83M24.71,82.49l17.76,31.12a6.06,6.06,0,0,0,7.89,2.4l31.8-16.07a5.37,5.37,0,0,0,2.23-7.52L66.63,61.3a6.06,6.06,0,0,0-7.89-2.4L26.94,75a5.38,5.38,0,0,0-2.23,7.52M199.1,132l-6.47-11.34L79.18,178l6.48,11.35L199.1,132M145.25,37.57l-6.48-11.35L75.14,58.39l6.48,11.34,63.63-32.16M155.3,55.19l-6.48-11.35L85.19,76l6.48,11.34L155.3,55.19"/><path class="cls-4" d="M218,143.87,87.76,209.7A9.45,9.45,0,0,1,75.47,206L2.73,78.5a8.44,8.44,0,0,1-.64-7.09L.5,75.79a8.47,8.47,0,0,0,.64,7.1L73.87,210.35a9.46,9.46,0,0,0,12.3,3.73l130.22-65.83a8.31,8.31,0,0,0,2.55-2,7.9,7.9,0,0,0,.91-1.26,6.42,6.42,0,0,0,.37-.68c.11-.23.2-.47.29-.71l1.59-4.39A8.33,8.33,0,0,1,218,143.87Z"/></g></g></g>

</svg>