<svg xmlns="http://www.w3.org/2000/svg" viewBox="0 0 140.86 141.68"><defs><style>.cls-1{fill:#c4c4c4;fill-rule:evenodd;}</style></defs><g id="Layer_2" data-name="Layer 2"><g id="Layer_1-2" data-name="Layer 1"><path class="cls-1" d="M65,.22c14.35-3,16.21,24.66,28.72,32.29,12,7.33,33.2-2.29,40.42,9.82S122.4,68.26,123.36,82.25c1.07,15.64,22.4,28.69,16.46,43.2-5.61,13.71-26,13.89-40.66,16C87.54,143,76.69,137,65,135.94c-10.38-.95-21.18,3.71-30.72-.48a43.46,43.46,0,0,1-22.1-22.71c-4-9.54,1.33-20.27-.21-30.5C10.09,69.65-5.66,56,2.17,46c8.41-10.8,29.2,5.23,40.26-2.82C55.73,33.47,48.9,3.56,65,.22Z"/></g></g></svg>