<svg viewBox="0 0 200 200" xmlns="http://www.w3.org/2000/svg">
  <path fill="#FF0066" d="M33.9,-66.2C41.1,-54.5,42.1,-39.7,43.3,-28.2C44.4,-16.6,45.6,-8.3,48.6,1.7C51.5,11.8,56.4,23.6,54.9,34.6C53.5,45.6,45.8,55.8,35.6,61.8C25.4,67.9,12.7,69.8,3,64.5C-6.7,59.3,-13.4,47,-27.3,43.1C-41.2,39.2,-62.3,43.7,-69.8,37.9C-77.3,32.1,-71.2,16.1,-64.5,3.9C-57.7,-8.2,-50.3,-16.5,-43.6,-23.8C-37,-31,-31,-37.3,-23.9,-49.1C-16.8,-60.8,-8.4,-78.1,2.5,-82.4C13.3,-86.7,26.7,-78,33.9,-66.2Z" transform="translate(100 100)" >
  <animate dur="20s" repeatCount="indefinite" attributeName="d" values="M33.9,-66.2C41.1,-54.5,42.1,-39.7,43.3,-28.2C44.4,-16.6,45.6,-8.3,48.6,1.7C51.5,11.8,56.4,23.6,54.9,34.6C53.5,45.6,45.8,55.8,35.6,61.8C25.4,67.9,12.7,69.8,3,64.5C-6.7,59.3,-13.4,47,-27.3,43.1C-41.2,39.2,-62.3,43.7,-69.8,37.9C-77.3,32.1,-71.2,16.1,-64.5,3.9C-57.7,-8.2,-50.3,-16.5,-43.6,-23.8C-37,-31,-31,-37.3,-23.9,-49.1C-16.8,-60.8,-8.4,-78.1,2.5,-82.4C13.3,-86.7,26.7,-78,33.9,-66.2Z;

  M28,-48.1C39,-42.2,52.4,-40.1,57.7,-32.7C63,-25.3,60.1,-12.7,56,-2.4C51.9,7.9,46.5,15.8,42.9,26.2C39.4,36.5,37.6,49.2,30.7,56.8C23.8,64.4,11.9,66.8,-2.2,70.6C-16.3,74.3,-32.6,79.5,-39.4,71.9C-46.2,64.3,-43.5,43.9,-48.8,29.8C-54.1,15.7,-67.4,7.9,-67.1,0.2C-66.9,-7.5,-53,-15.1,-44.8,-24.1C-36.5,-33.1,-33.9,-43.6,-27.4,-52.1C-20.8,-60.6,-10.4,-67.2,-0.9,-65.6C8.5,-63.9,17,-54.1,28,-48.1Z;

  M33.8,-50.4C47.5,-50.6,64.8,-49,76.2,-40.3C87.7,-31.6,93.3,-15.8,88.1,-3C82.8,9.7,66.6,19.4,54.4,26.8C42.1,34.1,33.8,39.1,25.4,46.4C17,53.6,8.5,63.1,-3.4,69.1C-15.3,75,-30.6,77.3,-40.1,70.6C-49.5,64,-53.1,48.4,-56.2,35.1C-59.3,21.8,-62,10.9,-61.4,0.3C-60.8,-10.2,-57,-20.5,-50.6,-28C-44.2,-35.6,-35.2,-40.5,-26.3,-43C-17.4,-45.6,-8.7,-46,0.7,-47.1C10,-48.3,20.1,-50.2,33.8,-50.4Z;
  
  M33.9,-66.2C41.1,-54.5,42.1,-39.7,43.3,-28.2C44.4,-16.6,45.6,-8.3,48.6,1.7C51.5,11.8,56.4,23.6,54.9,34.6C53.5,45.6,45.8,55.8,35.6,61.8C25.4,67.9,12.7,69.8,3,64.5C-6.7,59.3,-13.4,47,-27.3,43.1C-41.2,39.2,-62.3,43.7,-69.8,37.9C-77.3,32.1,-71.2,16.1,-64.5,3.9C-57.7,-8.2,-50.3,-16.5,-43.6,-23.8C-37,-31,-31,-37.3,-23.9,-49.1C-16.8,-60.8,-8.4,-78.1,2.5,-82.4C13.3,-86.7,26.7,-78,33.9,-66.2Z" fill="freeze"
      calcMode="spline"
      keySplines="0.4 0 0.2 1; 0.4 0 0.2 1; 0.4 0 0.2 1"/>
      <animateTransform attributeType="xml" attributeName="transform" type="rotate" from="360 0 0" to="0 0 0" dur="180s" additive="sum" repeatCount="indefinite" />
  </path>
</svg>