<svg xmlns="http://www.w3.org/2000/svg" viewBox="0 0 131.31 110.31"><defs><style>.cls-1{fill:#c4c4c4;fill-rule:evenodd;}</style></defs><g id="Layer_2" data-name="Layer 2"><g id="Layer_1-2" data-name="Layer 1"><path class="cls-1" d="M69.82.37C78.5-1,86.94,1.78,95.52,3.63c11.9,2.57,29.06-1.12,34.53,9.74C135.67,24.52,120.79,36,118,48.14c-2,8.79,2.2,18.64-2.2,26.52S101.57,85.14,94.29,90.53c-8.3,6.14-14.4,15.83-24.47,18.12C59.14,111.08,44.71,112,38,103.32c-7.59-9.71,4.65-25.26-.72-36.36-4.74-9.79-20.46-9.44-26-18.82C4.59,36.78-5.58,19.3,3.77,10,14.52-.68,33.46,13.34,48.46,11.15,56.49,10,61.81,1.65,69.82.37Z"/></g></g></svg>