<svg xmlns="http://www.w3.org/2000/svg" viewBox="0 0 128.97 133.94"><defs><style>.cls-1{fill:#c4c4c4;fill-rule:evenodd;}</style></defs><g id="Layer_2" data-name="Layer 2"><g id="Layer_1-2" data-name="Layer 1"><path class="cls-1" d="M70.14,11.81c8.38,1.94,18.27-3.09,25.29,1.87s5.47,16.12,10.3,23.26c5.36,7.93,15.79,11.66,19.34,20.55,4.14,10.37,5.27,22.19,2,32.86-3.6,11.67-11.4,21.77-21.1,29.19-10.39,7.95-22.76,15.13-35.82,14.34s-21.88-12.62-33.41-18.53C24.48,109.07,1.2,111.68.05,98c-1.46-17.4,30.89-23,31.82-40.47.86-15.91-29-22.16-27.6-38C5.43,6.62,24.21,1.61,37,.12,48.85-1.25,58.54,9.12,70.14,11.81Z"/></g></g></svg>