<svg xmlns="http://www.w3.org/2000/svg" viewBox="0 0 144.91 127.84"><defs><style>.cls-1{fill:#c4c4c4;fill-rule:evenodd;}</style></defs><g id="Layer_2" data-name="Layer 2"><g id="Layer_1-2" data-name="Layer 1"><path class="cls-1" d="M64.63,4C77,3,92.91-4.75,101.2,4.48,110.61,15,94.53,34.33,102.4,46c8.89,13.18,35.82,7,41.51,21.81C148.71,80.37,135.3,95,123.83,102c-11.17,6.82-26.56-3.64-38.55,1.59-9.9,4.32-9.86,24.75-20.65,24.25-11-.5-9.24-22.17-19.59-26.09-13.72-5.19-34.47,14.13-43.21,2.34C-6.35,93,15.3,80.76,19.9,67.82c2.74-7.72,1.73-15.89,3.3-23.92,2.27-11.61-.5-25.74,8-33.95C39.5,2,53.15,4.85,64.63,4Z"/></g></g></svg>