<svg xmlns="http://www.w3.org/2000/svg" viewBox="0 0 157.05 157.05"><defs><style>.cls-1{fill:#c4c4c4;fill-rule:evenodd;}</style></defs><g id="Layer_2" data-name="Layer 2"><g id="Layer_1-2" data-name="Layer 1"><path class="cls-1" d="M74,2.13C88.9.3,107-3.29,118,6.9c11.47,10.63,3.39,30.81,9.82,45.06,5.52,12.22,20.61,18.21,24.51,31,4.37,14.37,8.72,33.36-1.62,44.24-11.12,11.69-32,1.14-47.07,7C91.8,138.81,86.69,156.68,74,157S52.69,144.51,43.44,136c-7.68-7.1-12.09-16.42-18.72-24.51C16.61,101.57-.33,95.77,0,83s20-16.27,26.19-27.6C32.61,43.59,27,27,35.92,17,45.19,6.69,60.26,3.83,74,2.13Z"/></g></g></svg>