<svg xmlns="http://www.w3.org/2000/svg" viewBox="0 0 150.77 147.87"><defs><style>.cls-1{fill:#c4c4c4;fill-rule:evenodd;}</style></defs><g id="Layer_2" data-name="Layer 2"><g id="Layer_1-2" data-name="Layer 1"><path class="cls-1" d="M71.8,2C84.44,8.14,83.56,27.1,92.67,37.79,97.88,43.92,106,46,112.84,50.24c12.88,8,37.34,8.54,37.92,23.69.57,14.82-29.33,11.55-36.06,24.77-7.37,14.48,13.54,40.53-.94,47.9-14.93,7.6-26-21.08-42-26.07-9.51-3-19.42,6.11-29.12,3.85A53.1,53.1,0,0,1,14.3,107.13,59.69,59.69,0,0,1,.18,73.93c-1-12.65,2.41-25.3,8.44-36.48C14.75,26.09,23.51,16.11,34.77,9.79S60.25-3.56,71.8,2Z"/></g></g></svg>