<svg xmlns="http://www.w3.org/2000/svg" viewBox="0 0 157.79 160.94"><defs><style>.cls-1{fill:#c4c4c4;fill-rule:evenodd;}</style></defs><g id="Layer_2" data-name="Layer 2"><g id="Layer_1-2" data-name="Layer 1"><path class="cls-1" d="M81.48,35.87c12.08,2.93,19.88-16.61,32.29-17.33,14.89-.86,35.08-.18,42,13,7.06,13.42-6.36,29.08-12.61,42.9C138.85,84,128.59,89.71,125,99.6c-4.71,13.12,2.64,29.42-5.52,40.73-8.49,11.78-24.22,24.16-38,19.66-15.52-5.05-14.07-29.36-26-40.51-8.17-7.63-21.9-5.3-30.57-12.36C14.13,98.35-1.67,88.24.14,74.46c1.91-14.5,26-15.06,32.77-28,7.27-14-9.63-42.76,5.77-46.1C57.12-3.69,63.15,31.42,81.48,35.87Z"/></g></g></svg>