<svg xmlns="http://www.w3.org/2000/svg" viewBox="0 0 114.61 139.18"><defs><style>.cls-1{fill:#c4c4c4;fill-rule:evenodd;}</style></defs><g id="Layer_2" data-name="Layer 2"><g id="Layer_1-2" data-name="Layer 1"><path class="cls-1" d="M57.19,5.94C71,3.86,90.4-6,98.39,5.44c10,14.3-9.77,34-6,51,2.21,9.89,19.81,10.42,21.9,20.34,2,9.51-6.52,18-12.14,26-5.23,7.41-11.22,14.4-19.31,18.5-7.87,4-17.16,2-25.67,4.32C45,129,33.33,143.42,21.88,138c-11.06-5.26-7.65-22.63-11-34.41A237,237,0,0,1,4.43,76.81C2.62,65.91-2.12,55,1.08,44.42c3.43-11.35,11.7-20.88,21.48-27.59C32.71,9.87,45,7.76,57.19,5.94Z"/></g></g></svg>