<svg viewBox="0 0 200 200" xmlns="http://www.w3.org/2000/svg">
  <path fill="#FF0066" d="M41.7,-67.2C51.6,-66.5,55.7,-50.5,62.7,-36.7C69.8,-23,80,-11.5,77.1,-1.7C74.2,8.1,58.2,16.3,50.4,28.7C42.6,41.2,42.9,58,35.8,70.6C28.8,83.1,14.4,91.4,2.1,87.8C-10.2,84.2,-20.5,68.7,-31.1,58.2C-41.8,47.8,-53,42.4,-63.8,33.5C-74.7,24.7,-85.2,12.3,-83.8,0.8C-82.3,-10.7,-68.9,-21.3,-58.3,-30.7C-47.7,-40,-40,-48,-30.8,-49.1C-21.5,-50.2,-10.8,-44.5,2.6,-48.9C15.9,-53.4,31.8,-68,41.7,-67.2Z" transform="translate(100 100)">

  <animate dur="20s" repeatCount="indefinite" attributeName="d" values="M41.7,-67.2C51.6,-66.5,55.7,-50.5,62.7,-36.7C69.8,-23,80,-11.5,77.1,-1.7C74.2,8.1,58.2,16.3,50.4,28.7C42.6,41.2,42.9,58,35.8,70.6C28.8,83.1,14.4,91.4,2.1,87.8C-10.2,84.2,-20.5,68.7,-31.1,58.2C-41.8,47.8,-53,42.4,-63.8,33.5C-74.7,24.7,-85.2,12.3,-83.8,0.8C-82.3,-10.7,-68.9,-21.3,-58.3,-30.7C-47.7,-40,-40,-48,-30.8,-49.1C-21.5,-50.2,-10.8,-44.5,2.6,-48.9C15.9,-53.4,31.8,-68,41.7,-67.2Z;

  M21.9,-39.7C29.3,-33.7,36.9,-29.7,40.9,-23.4C44.9,-17.1,45.4,-8.5,48.1,1.5C50.8,11.6,55.5,23.2,53,32.1C50.5,41,40.6,47.1,30.5,57.3C20.5,67.6,10.2,82,-0.6,82.9C-11.3,83.9,-22.7,71.4,-32.4,60.9C-42,50.5,-50,42,-53.9,32.1C-57.8,22.3,-57.5,11.2,-57.2,0.2C-56.8,-10.7,-56.3,-21.4,-53.1,-32.6C-50,-43.7,-44.2,-55.2,-34.9,-60.1C-25.7,-65,-12.8,-63.4,-2.8,-58.6C7.3,-53.8,14.5,-45.8,21.9,-39.7Z;

  M33.9,-66.2C41.1,-54.5,42.1,-39.7,43.3,-28.2C44.4,-16.6,45.6,-8.3,48.6,1.7C51.5,11.8,56.4,23.6,54.9,34.6C53.5,45.6,45.8,55.8,35.6,61.8C25.4,67.9,12.7,69.8,3,64.5C-6.7,59.3,-13.4,47,-27.3,43.1C-41.2,39.2,-62.3,43.7,-69.8,37.9C-77.3,32.1,-71.2,16.1,-64.5,3.9C-57.7,-8.2,-50.3,-16.5,-43.6,-23.8C-37,-31,-31,-37.3,-23.9,-49.1C-16.8,-60.8,-8.4,-78.1,2.5,-82.4C13.3,-86.7,26.7,-78,33.9,-66.2Z;
  
  M41.7,-67.2C51.6,-66.5,55.7,-50.5,62.7,-36.7C69.8,-23,80,-11.5,77.1,-1.7C74.2,8.1,58.2,16.3,50.4,28.7C42.6,41.2,42.9,58,35.8,70.6C28.8,83.1,14.4,91.4,2.1,87.8C-10.2,84.2,-20.5,68.7,-31.1,58.2C-41.8,47.8,-53,42.4,-63.8,33.5C-74.7,24.7,-85.2,12.3,-83.8,0.8C-82.3,-10.7,-68.9,-21.3,-58.3,-30.7C-47.7,-40,-40,-48,-30.8,-49.1C-21.5,-50.2,-10.8,-44.5,2.6,-48.9C15.9,-53.4,31.8,-68,41.7,-67.2Z;" fill="freeze"
      calcMode="spline"
      keySplines="0.4 0 0.2 1; 0.4 0 0.2 1; 0.4 0 0.2 1"/>
      <animateTransform attributeType="xml" attributeName="transform" type="rotate" from="0 0 0" to="360 0 0" dur="25s" additive="sum" repeatCount="indefinite" />
  </path>
</svg>