<svg xmlns="http://www.w3.org/2000/svg" viewBox="0 0 145.24 140.57"><defs><style>.cls-1{fill:#c4c4c4;fill-rule:evenodd;}</style></defs><g id="Layer_2" data-name="Layer 2"><g id="Layer_1-2" data-name="Layer 1"><path class="cls-1" d="M73.79,5.56c12.37-1,28.12-10.84,36.54-1.73,9.64,10.44-3.16,28.17.54,41.88,2.4,8.86,12.34,13.26,16.56,21.41,6.59,12.76,24.74,29.07,15,39.62-11.08,12-32.85-10-48-3.89-11.84,4.76-9.55,25.15-20.63,31.47-12.09,6.9-27.69,8-40.9,3.63C19,133.3,1.22,124.34.05,109.69c-1.36-17.07,25.13-25.56,27.2-42.57,1.69-13.76-20.54-23.44-17.48-37C12.56,17.9,28.65,13.77,40.39,9.26,51,5.17,62.43,6.44,73.79,5.56Z"/></g></g></svg>