<svg xmlns="http://www.w3.org/2000/svg" viewBox="0 0 139.3 134.12"><defs><style>.cls-1{fill:#c4c4c4;fill-rule:evenodd;}</style></defs><g id="Layer_2" data-name="Layer 2"><g id="Layer_1-2" data-name="Layer 1"><path class="cls-1" d="M77.13,8c9.8,4.07,13.09,17,22.68,21.55,10.91,5.18,27-3,35.14,5.89,7.64,8.36,3.44,22.38.76,33.38-2.36,9.65-11.81,15.75-15,25.14-4.31,12.53,4.71,32-6.82,38.48S89,124.65,77.13,118.61c-7.58-3.86-12.46-11.21-20-15.07-8.17-4.17-17.94-3.48-25.75-8.28C19.6,88.06-3.8,81.89.53,68.82,5.75,53.07,37.32,65,46.05,50.87c8.29-13.4-15.15-33.34-5.9-46.1C47.54-5.42,65.51,3.17,77.13,8Z"/></g></g></svg>