<svg xmlns="http://www.w3.org/2000/svg" viewBox="0 0 134.73 138.64"><defs><style>.cls-1{fill:#c4c4c4;fill-rule:evenodd;}</style></defs><g id="Layer_2" data-name="Layer 2"><g id="Layer_1-2" data-name="Layer 1"><path class="cls-1" d="M77,2c13.31-1.19,28.1-4.83,39.33,2.41s18.44,21.44,18.42,34.79c0,12.93-14.64,21-18.52,33.34-2.34,7.49,2.93,15.57.81,23.12-2.42,8.62-6.57,17.11-13.64,22.61-7.43,5.78-17.33,6-26.4,8.54-12.26,3.39-27.71,18.1-36.45,8.85-10.27-10.86,11.07-31.21,3.26-44C35.63,78.34,9.34,86.24,1.87,72.51c-6.23-11.46,4.5-25.72,11.57-36.68C20.31,25.16,30.29,17,41.49,11.05,52.45,5.21,64.6,3.07,77,2Z"/></g></g></svg>