<svg xmlns="http://www.w3.org/2000/svg" viewBox="0 0 143.15 147.1"><defs><style>.cls-1{fill:#c4c4c4;fill-rule:evenodd;}</style></defs><g id="Layer_2" data-name="Layer 2"><g id="Layer_1-2" data-name="Layer 1"><path class="cls-1" d="M77.55.06c13.58,1.2,18,19.83,24.73,31.7,4.26,7.53,1.89,17.56,7,24.49,6.27,8.41,19.62,9.29,24.87,18.36,6.36,11,12,25.1,7,36.77-4.92,11.46-20.24,13.53-31.18,19.52-10.69,5.86-21.11,19.71-32.5,15.37-13.08-5-8.25-29.45-20.8-35.64-14-6.94-33.13,11.38-46.1,2.6-11-7.47-13.66-27-7.11-38.62C11,61.45,33,65.77,43.56,55c6.79-6.92,1.48-19.59,6.58-27.84C57,16,64.53-1.1,77.55.06Z"/></g></g></svg>