<svg viewBox="0 0 200 200" xmlns="http://www.w3.org/2000/svg">
  <path fill="#FF0066" d="M39.6,-72C49.2,-63.1,53.4,-48.2,54.5,-35.2C55.6,-22.2,53.5,-11.1,54.3,0.5C55.2,12,58.8,24.1,56.1,34.2C53.3,44.3,44.2,52.4,33.7,61.3C23.3,70.1,11.7,79.6,1.9,76.3C-7.9,73.1,-15.8,57,-27,48.7C-38.2,40.3,-52.8,39.6,-61,32.7C-69.1,25.9,-71,13,-70.1,0.5C-69.1,-11.9,-65.4,-23.7,-60.2,-35.8C-55,-47.8,-48.4,-60.1,-38.1,-68.6C-27.8,-77.1,-13.9,-81.9,0.5,-82.8C15,-83.8,30,-80.9,39.6,-72Z" transform="translate(100 100)">

  <animate dur="20s" repeatCount="indefinite" attributeName="d" values="M39.6,-72C49.2,-63.1,53.4,-48.2,54.5,-35.2C55.6,-22.2,53.5,-11.1,54.3,0.5C55.2,12,58.8,24.1,56.1,34.2C53.3,44.3,44.2,52.4,33.7,61.3C23.3,70.1,11.7,79.6,1.9,76.3C-7.9,73.1,-15.8,57,-27,48.7C-38.2,40.3,-52.8,39.6,-61,32.7C-69.1,25.9,-71,13,-70.1,0.5C-69.1,-11.9,-65.4,-23.7,-60.2,-35.8C-55,-47.8,-48.4,-60.1,-38.1,-68.6C-27.8,-77.1,-13.9,-81.9,0.5,-82.8C15,-83.8,30,-80.9,39.6,-72Z;

  M33.9,-66.2C41.1,-54.5,42.1,-39.7,43.3,-28.2C44.4,-16.6,45.6,-8.3,48.6,1.7C51.5,11.8,56.4,23.6,54.9,34.6C53.5,45.6,45.8,55.8,35.6,61.8C25.4,67.9,12.7,69.8,3,64.5C-6.7,59.3,-13.4,47,-27.3,43.1C-41.2,39.2,-62.3,43.7,-69.8,37.9C-77.3,32.1,-71.2,16.1,-64.5,3.9C-57.7,-8.2,-50.3,-16.5,-43.6,-23.8C-37,-31,-31,-37.3,-23.9,-49.1C-16.8,-60.8,-8.4,-78.1,2.5,-82.4C13.3,-86.7,26.7,-78,33.9,-66.2Z;

  M21.8,-35.6C30.4,-32.7,41.1,-31.3,50.3,-25.6C59.5,-20,67,-10,64.3,-1.6C61.5,6.8,48.4,13.6,42.3,24.6C36.3,35.7,37.3,50.9,31.4,60.1C25.5,69.4,12.7,72.5,2.3,68.6C-8.2,64.6,-16.4,53.6,-29.1,48.3C-41.7,43,-58.9,43.5,-66,36.4C-73,29.3,-69.9,14.6,-68,1.1C-66.1,-12.4,-65.3,-24.9,-62.4,-39.1C-59.5,-53.4,-54.4,-69.4,-43.7,-71C-32.9,-72.6,-16.5,-59.8,-4.9,-51.2C6.6,-42.7,13.1,-38.4,21.8,-35.6Z;
  
  M39.6,-72C49.2,-63.1,53.4,-48.2,54.5,-35.2C55.6,-22.2,53.5,-11.1,54.3,0.5C55.2,12,58.8,24.1,56.1,34.2C53.3,44.3,44.2,52.4,33.7,61.3C23.3,70.1,11.7,79.6,1.9,76.3C-7.9,73.1,-15.8,57,-27,48.7C-38.2,40.3,-52.8,39.6,-61,32.7C-69.1,25.9,-71,13,-70.1,0.5C-69.1,-11.9,-65.4,-23.7,-60.2,-35.8C-55,-47.8,-48.4,-60.1,-38.1,-68.6C-27.8,-77.1,-13.9,-81.9,0.5,-82.8C15,-83.8,30,-80.9,39.6,-72Z;" fill="freeze"
      calcMode="spline"
      keySplines="0.4 0 0.2 1; 0.4 0 0.2 1; 0.4 0 0.2 1"/>
      <animateTransform attributeType="xml" attributeName="transform" type="rotate" from="0 0 0" to="360 0 0" dur="25s" additive="sum" repeatCount="indefinite" />
  </path>
</svg>