<svg viewBox="0 0 200 200" xmlns="http://www.w3.org/2000/svg">
  <path fill="#FF0066" d="M25.9,-46C38.1,-37.9,55.4,-40,65.5,-34C75.6,-28,78.4,-14,79.2,0.5C80.1,14.9,78.8,29.9,71.4,40.4C63.9,50.9,50.2,57,37.2,57.4C24.3,57.9,12.1,52.7,2.2,49C-7.8,45.2,-15.6,42.9,-27.1,41.6C-38.6,40.3,-53.7,40,-60.9,33.3C-68.1,26.5,-67.2,13.3,-62.5,2.7C-57.9,-7.9,-49.4,-15.7,-45.8,-28.7C-42.2,-41.7,-43.6,-59.7,-36.8,-70.9C-29.9,-82.1,-15,-86.4,-4,-79.4C6.9,-72.4,13.8,-54.1,25.9,-46Z" transform="translate(100 100)">

  <animate dur="20s" repeatCount="indefinite" attributeName="d" values="M25.9,-46C38.1,-37.9,55.4,-40,65.5,-34C75.6,-28,78.4,-14,79.2,0.5C80.1,14.9,78.8,29.9,71.4,40.4C63.9,50.9,50.2,57,37.2,57.4C24.3,57.9,12.1,52.7,2.2,49C-7.8,45.2,-15.6,42.9,-27.1,41.6C-38.6,40.3,-53.7,40,-60.9,33.3C-68.1,26.5,-67.2,13.3,-62.5,2.7C-57.9,-7.9,-49.4,-15.7,-45.8,-28.7C-42.2,-41.7,-43.6,-59.7,-36.8,-70.9C-29.9,-82.1,-15,-86.4,-4,-79.4C6.9,-72.4,13.8,-54.1,25.9,-46Z;

  M35.3,-55.7C49.4,-53.1,66.7,-50.8,75.8,-41.6C84.9,-32.4,85.7,-16.2,77.8,-4.6C69.9,7.1,53.3,14.1,42,19.6C30.8,25.1,24.9,29.1,18.8,33.6C12.7,38.1,6.4,43.2,-1.1,45.2C-8.6,47.1,-17.3,46,-28.1,44.2C-38.9,42.4,-51.9,40,-63.9,32.5C-75.8,25,-86.7,12.5,-89.5,-1.6C-92.3,-15.7,-86.9,-31.4,-76.1,-40.9C-65.3,-50.3,-49,-53.5,-35.4,-56.3C-21.8,-59.1,-10.9,-61.4,-0.1,-61.2C10.7,-60.9,21.3,-58.2,35.3,-55.7Z;

  M36.9,-71.5C43.7,-59.9,42.2,-41.8,44.7,-28.7C47.2,-15.7,53.6,-7.9,58.6,2.9C63.6,13.6,67.2,27.3,63.6,38.4C60,49.4,49.2,58,37.4,63.2C25.6,68.4,12.8,70.3,0.9,68.8C-11,67.3,-22.1,62.3,-33.8,57.1C-45.6,51.8,-58.1,46.3,-63.5,36.7C-68.9,27.2,-67.2,13.6,-61.2,3.5C-55.2,-6.6,-44.8,-13.2,-38.5,-21.3C-32.3,-29.4,-30.2,-39,-24.4,-51.2C-18.7,-63.4,-9.4,-78.1,2.8,-83C15,-88,30.1,-83,36.9,-71.5Z;
  
  M25.9,-46C38.1,-37.9,55.4,-40,65.5,-34C75.6,-28,78.4,-14,79.2,0.5C80.1,14.9,78.8,29.9,71.4,40.4C63.9,50.9,50.2,57,37.2,57.4C24.3,57.9,12.1,52.7,2.2,49C-7.8,45.2,-15.6,42.9,-27.1,41.6C-38.6,40.3,-53.7,40,-60.9,33.3C-68.1,26.5,-67.2,13.3,-62.5,2.7C-57.9,-7.9,-49.4,-15.7,-45.8,-28.7C-42.2,-41.7,-43.6,-59.7,-36.8,-70.9C-29.9,-82.1,-15,-86.4,-4,-79.4C6.9,-72.4,13.8,-54.1,25.9,-46Z;" fill="freeze"
      calcMode="spline"
      keySplines="0.4 0 0.2 1; 0.4 0 0.2 1; 0.4 0 0.2 1"/>
      <animateTransform attributeType="xml" attributeName="transform" type="rotate" from="0 0 0" to="360 0 0" dur="25s" additive="sum" repeatCount="indefinite" />
  </path>
</svg>