<svg xmlns="http://www.w3.org/2000/svg" viewBox="0 0 130.32 123.95"><defs><style>.cls-1{fill:#c4c4c4;fill-rule:evenodd;}</style></defs><g id="Layer_2" data-name="Layer 2"><g id="Layer_1-2" data-name="Layer 1"><path class="cls-1" d="M68.53,1.18C78.63,3.52,84,14.72,93.43,18.92c11.09,4.92,27.83-1.29,34.71,8.71,6.69,9.72-4.09,22.66-5,34.42-.86,10.59,6.83,23.45-.3,31.32-7.63,8.41-21.76,4.19-33,5.43-7.16.79-14.64-2.34-21.22.57-13.46,5.93-21,24.23-35.74,24.57-13.25.31-26.95-10.6-31.59-23C-3.52,88.28,7.05,75.28,9.67,62.05c2.07-10.43.87-21.25,5.36-30.89C19.76,21,26.18,11.09,36,5.62A46.27,46.27,0,0,1,68.53,1.18Z"/></g></g></svg>