<svg xmlns="http://www.w3.org/2000/svg" viewBox="0 0 448.69 294.49"><defs><style>.cls-1{fill:#13131a;}.cls-2{fill:#0c0c11;}</style></defs><g id="Layer_2" data-name="Layer 2"><g id="mockup"><g id="extension-base"><path class="cls-1" d="M447.08,185.57,362.68,11.19C359,3.49,349.93-1.37,342.53.35L22.07,74.88C14.67,76.6,11.7,84.25,15.43,92l9.11,18.81,72.6,150,2.69,5.55a20.57,20.57,0,0,0,13,10.67h0a15.13,15.13,0,0,0,7.13.18l290-67.45,30.48-7.09C447.84,200.92,450.81,193.28,447.08,185.57ZM423.81,193l-299,69.55c-7.39,1.71-16.41-3.13-20.14-10.84l-72.6-150c-3.73-7.71-.77-15.36,6.63-17.08L337.7,15c7.39-1.72,16.41,3.14,20.14,10.85l72.61,150C434.18,183.6,431.21,191.23,423.81,193Z"/><path class="cls-2" d="M440.55,202.61h0l-30.48,7.09L120.21,277.12l0,0c-7.4,1.72-16.42-3.13-20.15-10.84h0l-2.69-5.55-72.6-150L15.69,91.87h0c-2.47-5.12-2-10.21.76-13.55L2.37,95.38c-2.76,3.35-3.24,8.43-.76,13.55h0L86,283.31h0c3.71,7.66,12.65,12.5,20,10.87l0,0,320.46-74.53h0a11.06,11.06,0,0,0,4.71-2.34,10,10,0,0,0,1.16-1.19l14.08-17.06A10.51,10.51,0,0,1,440.55,202.61Z"/></g></g></g></svg>