<svg xmlns="http://www.w3.org/2000/svg" xmlns:xlink="http://www.w3.org/1999/xlink" viewBox="0 0 812.9 1113.62"><defs><style>.cls-1{fill:#13131a;}.cls-2{fill:#1f264b;}.cls-3{clip-path:url(#clip-path);}.cls-4{fill:#23232b;}</style><clipPath id="clip-path" transform="translate(3.98 2.49)"><path class="cls-1" d="M805.92,56.3C806.23,24,776-1.65,744.71.18h0l-.35,0h0l-.27.07h0l-.24.09h0l-.22.11h0l-.2.13h0a1.33,1.33,0,0,0-.19.14h0l-.17.14h0l-.17.16h0l-.16.17h0l-.15.18h0l-.14.19h0c0,.07-.09.14-.14.2h0a1.64,1.64,0,0,1-.14.22h0l-.13.23h0l-.14.24h0c-.05.09-.09.18-.13.27h0c0,.09-.08.19-.13.28h0c-.05.1-.08.2-.13.3h0a3,3,0,0,1-.11.32h0c0,.11-.07.22-.11.32h0c0,.11-.07.2-.1.31h0l-.09.29h0c0,.06,0,.11,0,.17,64.17,4.15,50.51,55.39,37.36,99.55C705,397.38,626.43,710.21,551.71,1007.85c-4.34,39.86-40,74.29-78.39,76.32-2.9.25-414.73,5-417.9,5.07-34.36.43-55.84-26-47.64-58.61l-.65,0h0c-.29,0-.58,0-.86.09h0l-.69.12h0L5,1031H5l-.42.13h0l-.36.14h0l-.31.14H4l-.27.15h0l-.24.15h0l-.22.16h0a1.56,1.56,0,0,0-.2.16H3l-.18.17h0l-.17.18h0l-.15.19h0a2.14,2.14,0,0,0-.13.19h0a2.25,2.25,0,0,0-.12.21h0a1.39,1.39,0,0,0-.1.26v0a2.76,2.76,0,0,0-.08.27v0a70.26,70.26,0,0,0-1.85,11.1,1.7,1.7,0,0,0,0-.22c-1.07,10.31,1.19,23.21,6.62,32.49l-.21-.36c.48.84,1,1.74,1.5,2.57h0c1.35,2,3,4.54,4.68,6.59l-.07-.08.3.38h0c11.64,14.48,30.12,21.22,48.1,20.9l414.74-5c31.93-.43,62.81-20.48,78.23-46.9,90-321.95,166.14-658.52,249.69-982.73a2.72,2.72,0,0,1,0,1.33A70.34,70.34,0,0,0,805.92,56.3Zm-751,1036v0c0,.22,0,.45,0,.67C54.93,1092.68,55,1092.47,55,1092.26Zm3.88,13.17a6.13,6.13,0,0,0,.51.51A6.13,6.13,0,0,1,58.84,1105.43Zm.52.52,0,0Zm.07.07a3.15,3.15,0,0,0,.33.22A3.15,3.15,0,0,1,59.43,1106Zm.52.36h0a2.91,2.91,0,0,0,.48.21A2.91,2.91,0,0,1,60,1106.38Zm.62.26.07,0Zm.08,0h0a1.92,1.92,0,0,0,.41,0A1.92,1.92,0,0,1,60.65,1106.66Zm409.82-11.81Zm-.5-9.67,0-.16h0c0,.06,0,.12,0,.18Zm-.16,1.07v0Zm0,.19v0Zm0,.22s0,.08,0,.12,0-.08,0-.12Zm.2-1.39v0Zm-.12.71v0Zm0,.14v0h0s0,.1,0,.15S469.82,1086.15,469.82,1086.12Zm-.09.82h0c0,.09,0,.18,0,.26C469.72,1087.11,469.72,1087,469.73,1086.94Zm-.06,1.06a1,1,0,0,0,0,.17A1,1,0,0,1,469.67,1088Zm0,2h0Zm.07,1h0s0,0,0,.08S469.75,1091.05,469.75,1091Zm.11,1v0Zm.16,1v0Zm.21,1v0Zm.23.88h0Zm2.76,5.21.34.43h0Zm.6.69a3.7,3.7,0,0,0,.28.28A3.7,3.7,0,0,1,473.82,1100.71Zm.48.43a4.73,4.73,0,0,0,.39.28A4.73,4.73,0,0,1,474.3,1101.14Zm.79.45a1.45,1.45,0,0,0,.29.11A1.45,1.45,0,0,1,475.09,1101.59Zm79.24-76.16-.1,0Zm-3.84-1h0Zm-2-.22h0Zm2,.21h0Zm.94.18h0l.13,0h0Zm.94.22Zm.08,0,.06,0Zm1,.29h0Zm1.76.65.1,0Zm.81.37h0l.12.06Zm.12,0ZM790.37,63.42a2.56,2.56,0,0,1,.39,0C790.63,63.43,790.5,63.43,790.37,63.42Zm11,4.89A6.86,6.86,0,0,1,802,69,6.86,6.86,0,0,0,801.42,68.31Z"/></clipPath></defs><g id="Layer_2" data-name="Layer 2"><g id="mockup"><g id="Phone"><path class="cls-1" d="M805.9,56.21C806.22,23.94,776-1.74,744.7.09h0a2.2,2.2,0,0,0-.36,0h0a2.29,2.29,0,0,0-.28.07h0l-.24.09h0l-.22.11h0l-.2.13h0l-.18.14h0l-.18.14h0l-.17.16h0l-.15.17h0l-.15.18h0l-.15.19h0l-.13.2h0l-.14.22h0l-.13.23h0L742,2.4h0c0,.09-.08.18-.13.27h0c-.05.09-.08.19-.13.28h0l-.12.3h0l-.12.32h0c0,.11-.07.22-.11.32h0c0,.11-.07.2-.1.31h0c0,.1-.06.18-.08.29h0a1.54,1.54,0,0,1-.05.17c38.4-.82,58.09,32.33,45.68,66.43-2.68,10.69-5.55,22.13-8.31,33.12-11.53,45.91-21.75,86.67-34.92,139.11-31.22,124.39-68.33,272.2-101.67,405-30.15,120.12-60.14,239.61-90.22,359.43-5.67,31.22-20.23,54.38-49.25,68.51a89.84,89.84,0,0,1-29.14,7.81c-2.9.25-414.74,5-417.9,5.07-34.36.43-55.84-26-47.64-58.61l-.66,0h0q-.43,0-.87.09h0l-.7.12h0l-.53.13H5l-.42.13h0l-.36.14h0l-.31.14h0l-.27.15h0l-.25.15h0l-.21.16h0l-.21.16H3l-.19.16h0l-.16.18h0l-.15.2h0l-.13.19h0c0,.07-.08.14-.11.21h0a1.39,1.39,0,0,0-.1.26v0a2.76,2.76,0,0,0-.08.27v0a71.41,71.41,0,0,0-1.84,11.1,1.55,1.55,0,0,1,0-.22c-1.07,10.31,1.19,23.2,6.62,32.49l-.21-.36,1.5,2.57h0c1.35,2,3,4.54,4.67,6.59l-.07-.09.31.39h0c11.64,14.48,30.12,21.22,48.09,20.9h0l414.75-5c31.93-.43,62.81-20.48,78.23-46.9,8.83-12.63,16.12-53.7,20.57-68.61C650.09,684.51,729.12,373.78,803.83,72a2.9,2.9,0,0,1,0,1.34A69.86,69.86,0,0,0,805.9,56.21ZM55,1092.17v0c0,.22,0,.45,0,.67C54.92,1092.59,54.94,1092.38,55,1092.17Zm3.87,13.17a6.19,6.19,0,0,0,.52.51A6.19,6.19,0,0,1,58.82,1105.34Zm.52.52,0,0Zm.08.07c.11.09.22.15.32.22C59.64,1106.08,59.53,1106,59.42,1105.93Zm.52.36h0a2.14,2.14,0,0,0,.47.2A2.14,2.14,0,0,1,59.94,1106.29Zm.61.26.07,0Zm.08,0h0a3,3,0,0,0,.42,0A3,3,0,0,1,60.63,1106.57Zm409.83-11.81Zm-.5-9.67,0-.16h0l0,.18Zm-.17,1.07v0Zm0,.19v0Zm0,.22s0,.08,0,.11,0-.07,0-.11Zm.19-1.39v0Zm-.11.71v0Zm0,.14v0h0a.77.77,0,0,0,0,.15A.31.31,0,0,1,469.81,1086Zm-.09.82h0c0,.09,0,.17,0,.26A2.28,2.28,0,0,1,469.72,1086.85Zm-.07,1.06v.17A1,1,0,0,1,469.65,1087.91Zm0,2h0Zm.07,1h0s0,0,0,.08S469.74,1091,469.74,1090.94Zm.11,1v0Zm.16,1v0Zm.21,1v0Zm.23.88h0Zm2.76,5.21c.11.15.23.3.34.43h0C473.44,1100.23,473.32,1100.08,473.21,1099.93Zm.6.69a3.7,3.7,0,0,0,.28.28A3.7,3.7,0,0,1,473.81,1100.62Zm.48.43a4.73,4.73,0,0,0,.39.28A4.73,4.73,0,0,1,474.29,1101.05Zm.79.45a1.45,1.45,0,0,0,.29.11A1.25,1.25,0,0,1,475.08,1101.5Zm79.24-76.16-.1,0Zm-3.84-1Zm-2-.21h0Zm2,.21h0Zm.94.18h0l.12,0h0Zm.93.22Zm.09,0,.06,0Zm1,.29h0Zm1.76.65.1,0Zm.81.36h0l.12.06Zm.11.06ZM790.35,63.33l.39,0Zm11,4.89a5.79,5.79,0,0,1,.57.67A5.79,5.79,0,0,0,801.4,68.22Z" transform="translate(3.98 2.49)"/><path class="cls-2" d="M.27,1043.91h0a1.93,1.93,0,0,1,0,.24c0-.29,0-.58.07-.83Z" transform="translate(3.98 2.49)"/><path class="cls-1" d="M805.92,56.3C806.23,24,776-1.65,744.71.18h0l-.35,0h0l-.27.07h0l-.24.09h0l-.22.11h0l-.2.13h0a1.33,1.33,0,0,0-.19.14h0l-.17.14h0l-.17.16h0l-.16.17h0l-.15.18h0l-.14.19h0c0,.07-.09.14-.14.2h0a1.64,1.64,0,0,1-.14.22h0l-.13.23h0l-.14.24h0c-.05.09-.09.18-.13.27h0c0,.09-.08.19-.13.28h0c-.05.1-.08.2-.13.3h0a3,3,0,0,1-.11.32h0c0,.11-.07.22-.11.32h0c0,.11-.07.2-.1.31h0l-.09.29h0c0,.06,0,.11,0,.17,64.17,4.15,50.51,55.39,37.36,99.55C705,397.38,626.43,710.21,551.71,1007.85c-4.34,39.86-40,74.29-78.39,76.32-2.9.25-414.73,5-417.9,5.07-34.36.43-55.84-26-47.64-58.61l-.65,0h0c-.29,0-.58,0-.86.09h0l-.69.12h0L5,1031H5l-.42.13h0l-.36.14h0l-.31.14H4l-.27.15h0l-.24.15h0l-.22.16h0a1.56,1.56,0,0,0-.2.16H3l-.18.17h0l-.17.18h0l-.15.19h0a2.14,2.14,0,0,0-.13.19h0a2.25,2.25,0,0,0-.12.21h0a1.39,1.39,0,0,0-.1.26v0a2.76,2.76,0,0,0-.08.27v0a70.26,70.26,0,0,0-1.85,11.1,1.7,1.7,0,0,0,0-.22c-1.07,10.31,1.19,23.21,6.62,32.49l-.21-.36c.48.84,1,1.74,1.5,2.57h0c1.35,2,3,4.54,4.68,6.59l-.07-.08.3.38h0c11.64,14.48,30.12,21.22,48.1,20.9l414.74-5c31.93-.43,62.81-20.48,78.23-46.9,90-321.95,166.14-658.52,249.69-982.73a2.72,2.72,0,0,1,0,1.33A70.34,70.34,0,0,0,805.92,56.3Zm-751,1036v0c0,.22,0,.45,0,.67C54.93,1092.68,55,1092.47,55,1092.26Zm3.88,13.17a6.13,6.13,0,0,0,.51.51A6.13,6.13,0,0,1,58.84,1105.43Zm.52.52,0,0Zm.07.07a3.15,3.15,0,0,0,.33.22A3.15,3.15,0,0,1,59.43,1106Zm.52.36h0a2.91,2.91,0,0,0,.48.21A2.91,2.91,0,0,1,60,1106.38Zm.62.26.07,0Zm.08,0h0a1.92,1.92,0,0,0,.41,0A1.92,1.92,0,0,1,60.65,1106.66Zm409.82-11.81Zm-.5-9.67,0-.16h0c0,.06,0,.12,0,.18Zm-.16,1.07v0Zm0,.19v0Zm0,.22s0,.08,0,.12,0-.08,0-.12Zm.2-1.39v0Zm-.12.71v0Zm0,.14v0h0s0,.1,0,.15S469.82,1086.15,469.82,1086.12Zm-.09.82h0c0,.09,0,.18,0,.26C469.72,1087.11,469.72,1087,469.73,1086.94Zm-.06,1.06a1,1,0,0,0,0,.17A1,1,0,0,1,469.67,1088Zm0,2h0Zm.07,1h0s0,0,0,.08S469.75,1091.05,469.75,1091Zm.11,1v0Zm.16,1v0Zm.21,1v0Zm.23.88h0Zm2.76,5.21.34.43h0Zm.6.69a3.7,3.7,0,0,0,.28.28A3.7,3.7,0,0,1,473.82,1100.71Zm.48.43a4.73,4.73,0,0,0,.39.28A4.73,4.73,0,0,1,474.3,1101.14Zm.79.45a1.45,1.45,0,0,0,.29.11A1.45,1.45,0,0,1,475.09,1101.59Zm79.24-76.16-.1,0Zm-3.84-1h0Zm-2-.22h0Zm2,.21h0Zm.94.18h0l.13,0h0Zm.94.22Zm.08,0,.06,0Zm1,.29h0Zm1.76.65.1,0Zm.81.37h0l.12.06Zm.12,0ZM790.37,63.42a2.56,2.56,0,0,1,.39,0C790.63,63.43,790.5,63.43,790.37,63.42Zm11,4.89A6.86,6.86,0,0,1,802,69,6.86,6.86,0,0,0,801.42,68.31Z" transform="translate(3.98 2.49)"/><g class="cls-3"><path class="cls-1" d="M55.27,1092.3c-34.1.72-57.72-28.06-48.75-61.1l3.88,1c-8.24,30.6,13.27,56.78,44.87,56.13,3.73-.18,415.18-4.78,418.61-5.08a88.1,88.1,0,0,0,28.42-7.62c20.79-10.07,38-28.27,44.05-50.86l6.39-25.48L787.54,63.92C795.86,33,773.85,6.68,741.85,7.8l0-4c34.49-1.13,58.66,27.65,49.61,61.08L781,106.48,550.23,1025.69c-6.33,23.76-24.36,43-46.23,53.53C494.19,1097.21,77.27,1087.4,55.27,1092.3Z" transform="translate(3.98 2.49)"/><path class="cls-1" d="M60.67,1111.12c-19,.42-39.15-7.24-51.11-22.59h0A75.57,75.57,0,0,1,3.15,1079h0c-5.62-9.77-8-23.14-6.88-34.13h0A76.18,76.18,0,0,1-2.6,1037l6.91,1.14a68.85,68.85,0,0,0-1.06,7.49h0c-1,9.78,1.16,21.67,6.21,30.32h0a70.51,70.51,0,0,0,5.65,8.32h0c10.62,13.63,28.8,20.29,45.61,19.87,8.21-.67,412.72-4.24,420.64-5.28,6.57-.6,6.17-.91,11-1.8a90.3,90.3,0,0,0,10.73-3.29,95.44,95.44,0,0,0,27.71-16.39,87.64,87.64,0,0,0,24.49-32.58c6-12,240.34-958.78,244.69-971.26.82-3.6,2-9.83,1.94-14.06h0C803.2,27.83,775.06,3,744.24,4.57h-.19c.15-1.56.1-5.39.06-7,28.34-1.28,56.69,17.76,63.1,46.13a64.32,64.32,0,0,1,1.16,23c-.8,9.55-241,959.86-242.84,969.46-5.12,19.83-17.47,36.79-33.85,49.46a99,99,0,0,1-39.15,18.51c-4.4.73-4,1.09-10.57,1.67C473.53,1108.44,68.89,1109.49,60.67,1111.12ZM800,73.58a.64.64,0,0,0,0,.24l.67-.15-.64-.16s0,0,0,.07ZM744.24,1.73v.42C744.24,2.05,744.25,1.82,744.24,1.73Z" transform="translate(3.98 2.49)"/></g><path class="cls-1" d="M703.28.59c-123.62,1.5-251.5,3-375.12,4.51l1.8,0a84,84,0,0,0-13.5,1.33l.86-.14c-1.75.33-3.62.68-5.47,1.14h0l-.52.14.52-.14c-32.17,7.94-60.35,33.35-68.57,65.06L2.07,1033.35c.72-2.32,3.58-2.74,5.7-2.81L249,69.71c8-32,41.86-58.72,75.63-60,1.52-.61,414.8-4.62,416.55-5,.52-1.87,1.4-4.38,3.61-4.57ZM323.64,5.39Z" transform="translate(3.98 2.49)"/><path class="cls-4" d="M386.37,1095.52c.1,3.61-5.57,3.68-5.56.07S386.38,1091.91,386.37,1095.52Z" transform="translate(3.98 2.49)"/><path class="cls-4" d="M371.69,1095.71c.1,3.61-5.57,3.68-5.56.07S371.7,1092.1,371.69,1095.71Z" transform="translate(3.98 2.49)"/><path class="cls-4" d="M401.05,1095.33c.1,3.61-5.57,3.68-5.56.07S401.06,1091.72,401.05,1095.33Z" transform="translate(3.98 2.49)"/><path class="cls-4" d="M415.73,1095.14c.1,3.6-5.57,3.68-5.56.07S415.74,1091.53,415.73,1095.14Z" transform="translate(3.98 2.49)"/><path class="cls-4" d="M430.41,1094.94c.1,3.61-5.57,3.69-5.56.08S430.42,1091.33,430.41,1094.94Z" transform="translate(3.98 2.49)"/><path class="cls-4" d="M115.69,1098.69c.1,3.6-5.57,3.68-5.57.07S115.69,1095.08,115.69,1098.69Z" transform="translate(3.98 2.49)"/><path class="cls-4" d="M101,1098.88c.1,3.61-5.57,3.68-5.57.07S101,1095.27,101,1098.88Z" transform="translate(3.98 2.49)"/><path class="cls-4" d="M130.37,1098.49c.1,3.61-5.57,3.69-5.57.08S130.37,1094.88,130.37,1098.49Z" transform="translate(3.98 2.49)"/><path class="cls-4" d="M145,1098.3c.1,3.61-5.56,3.68-5.56.07S145.05,1094.69,145,1098.3Z" transform="translate(3.98 2.49)"/><path class="cls-4" d="M159.72,1098.11c.1,3.61-5.56,3.68-5.56.07S159.73,1094.5,159.72,1098.11Z" transform="translate(3.98 2.49)"/><path class="cls-4" d="M262.51,1099.57l-24.33.25c-3.59.08-3.66-5.58-.05-5.57l24.33-.24C266.06,1093.93,266.13,1099.58,262.51,1099.57Z" transform="translate(3.98 2.49)"/></g></g></g></svg>