<svg xmlns="http://www.w3.org/2000/svg" viewBox="0 0 222.61 215.04"><defs><style>.design__design__cls-1{fill:#82e62a}</style></defs><g id="design__design__Layer_2" data-name="Layer 2"><g id="design__design__Design"><g id="design__design__content"><path class="design__design__cls-1" d="M138.77 26.22l6.48 11.35-63.63 32.16-6.48-11.34 63.63-32.17zm10.05 17.62l6.48 11.35-63.63 32.16L85.19 76l63.63-32.16z"/><path d="M58.74 58.9a6.06 6.06 0 017.89 2.4L84.4 92.42a5.38 5.38 0 01-2.24 7.52L50.36 116a6.06 6.06 0 01-7.89-2.4L24.71 82.49A5.38 5.38 0 0126.94 75zm100.65 13.82a5.5 5.5 0 017.16 2.18l18.28 32a4.88 4.88 0 01-2 6.83L78.54 166.46a5.5 5.5 0 01-7.16-2.18l-18.28-32a4.88 4.88 0 012-6.82z" fill="#17db32"/><path class="design__design__cls-1" d="M192.63 120.61l6.47 11.34L85.66 189.3l-6.48-11.35 113.45-57.34z"/></g><g id="design__design__base"><path d="M136.44 1a9.46 9.46 0 0112.3 3.74l72.73 127.46a8.37 8.37 0 01-3.47 11.67L87.76 209.7a9.45 9.45 0 01-12.29-3.7L2.73 78.5a8.37 8.37 0 013.49-11.71zm48.39 106l-18.28-32a5.5 5.5 0 00-7.16-2.18l-104.26 52.6a4.88 4.88 0 00-2 6.82l18.28 32a5.5 5.5 0 007.16 2.18l104.26-52.7a4.88 4.88 0 002-6.83M24.71 82.49l17.76 31.12a6.06 6.06 0 007.89 2.4l31.8-16.07a5.37 5.37 0 002.23-7.52L66.63 61.3a6.06 6.06 0 00-7.89-2.4L26.94 75a5.38 5.38 0 00-2.23 7.52M199.1 132l-6.47-11.34L79.18 178l6.48 11.35L199.1 132m-53.85-94.43l-6.48-11.35-63.63 32.17 6.48 11.34 63.63-32.16m10.05 17.62l-6.48-11.35L85.19 76l6.48 11.34 63.63-32.15" fill="#0b8651"/><path d="M218 143.87L87.76 209.7a9.45 9.45 0 01-12.29-3.7L2.73 78.5a8.44 8.44 0 01-.64-7.09L.5 75.79a8.47 8.47 0 00.64 7.1l72.73 127.46a9.46 9.46 0 0012.3 3.73l130.22-65.83a8.31 8.31 0 002.55-2 7.9 7.9 0 00.91-1.26 6.42 6.42 0 00.37-.68c.11-.23.2-.47.29-.71l1.59-4.39a8.33 8.33 0 01-4.1 4.66z" fill="#06462b"/></g></g></g></svg>