<svg id="visual" viewBox="0 0 900 600" width="900" height="600" xmlns="http://www.w3.org/2000/svg" xmlns:xlink="http://www.w3.org/1999/xlink" version="1.1"><path d="M0 265L113 85L225 187L338 223L450 133L563 67L675 151L788 223L900 175L900 0L788 0L675 0L563 0L450 0L338 0L225 0L113 0L0 0Z" fill="#7b6800"></path><path d="M0 295L113 193L225 295L338 295L450 193L563 175L675 259L788 325L900 277L900 173L788 221L675 149L563 65L450 131L338 221L225 185L113 83L0 263Z" fill="#947d00"></path><path d="M0 367L113 259L225 379L338 361L450 289L563 241L675 331L788 415L900 307L900 275L788 323L675 257L563 173L450 191L338 293L225 293L113 191L0 293Z" fill="#ae9300"></path><path d="M0 397L113 325L225 409L338 451L450 331L563 331L675 379L788 463L900 361L900 305L788 413L675 329L563 239L450 287L338 359L225 377L113 257L0 365Z" fill="#c8a900"></path><path d="M0 469L113 379L225 553L338 499L450 463L563 457L675 487L788 529L900 505L900 359L788 461L675 377L563 329L450 329L338 449L225 407L113 323L0 395Z" fill="#e3c000"></path><path d="M0 601L113 601L225 601L338 601L450 601L563 601L675 601L788 601L900 601L900 503L788 527L675 485L563 455L450 461L338 497L225 551L113 377L0 467Z" fill="#eeca01"></path></svg>