<?xml version="1.0" encoding="UTF-8"?>
<svg version="1.1" viewBox="0 0 900 600" xmlns="http://www.w3.org/2000/svg" style="height:100%">

<path d="m0 265 113-180 112 102 113 36 112-90 113-66 112 84 113 72 112-48v-175h-112-113-112-113-112-113-112-113z" fill="#7b6800"/>
<path d="m0 295 113-102 112 102h113l112-102 113-18 112 84 113 66 112-48v-104l-112 48-113-72-112-84-113 66-112 90-113-36-112-102-113 180z" fill="#947d00"/>
<path d="m0 367 113-108 112 120 113-18 112-72 113-48 112 90 113 84 112-108v-32l-112 48-113-66-112-84-113 18-112 102h-113l-112-102-113 102z" fill="#ae9300"/>
<path d="m0 397 113-72 112 84 113 42 112-120h113l112 48 113 84 112-102v-56l-112 108-113-84-112-90-113 48-112 72-113 18-112-120-113 108z" fill="#c8a900"/>
<path d="m0 469 113-90 112 174 113-54 112-36 113-6 112 30 113 42 112-24v-146l-112 102-113-84-112-48h-113l-112 120-113-42-112-84-113 72z" fill="#e3c000"/>
<path d="m0 601h113 112 113 112 113 112 113 112v-98l-112 24-113-42-112-30-113 6-112 36-113 54-112-174-113 90z" fill="#eeca01"/>
</svg>
