<svg xmlns="http://www.w3.org/2000/svg" viewBox="0 0 440.02 257.73"><defs><style>.cls-1{fill:#13131a;}.cls-2{fill:#0c0c11;}</style></defs><g id="Layer_2" data-name="Layer 2"><g id="mockup"><g id="logo-base"><path class="cls-1" d="M418.6,0c7.65-.18,13.32,6.06,12.59,13.88L411.42,226.32c-.73,7.82-7.58,14.37-15.23,14.56L12.65,250.19C5,250.38-.66,244.13.06,236.32L19.83,23.87c.73-7.82,7.59-14.37,15.24-14.55ZM395.2,217.07l18-193.1L36.07,33.12l-18,193.11,377.1-9.16"/><path class="cls-2" d="M435.75,10.45,427,2.92a12.68,12.68,0,0,1,4.2,11L411.42,226.32c-.73,7.82-7.58,14.37-15.23,14.56L12.65,250.19a12.26,12.26,0,0,1-8.38-2.91L13,254.82a12.26,12.26,0,0,0,8.38,2.91L405,248.42c7.65-.19,14.51-6.74,15.23-14.56L440,21.42A12.71,12.71,0,0,0,435.75,10.45Z"/></g></g></g></svg>